<svg id="e3j0wpulzPh1" xmlns="http://www.w3.org/2000/svg" xmlns:xlink="http://www.w3.org/1999/xlink" viewBox="0 0 500 500" shape-rendering="geometricPrecision" text-rendering="geometricPrecision" project-id="ac46f2564495491196102a0df273730d" export-id="55262d0098634efd8b398a66fd33bbb5" cached="false"><g transform="translate(54.981799 59.053008)"><path d="M82.8,120.668c-17.906,2.847-22.269,29.042-6.184,37.128c2.19,1.101,2.171,1.046,2.178,6.277.007,5.765,2.256,4.924-16.877,6.315-2.795.203-5.689.483-6.431.622-1.095.206-1.585.055-2.604-.802-3.874-3.26-8.882-1.184-8.882,3.683c0,4.896,5.173,6.977,9.022,3.631.743-.647,1.243-.679,5.2-.339c12.316,1.059,14.561,1.223,16.704,1.22c4.319-.006,3.875-3.945,3.868,34.311-.003,18.417-.145,33.705-.315,33.972-.495.779-8.684-.469-17.879-2.726-18.429-4.522-33.638-15.157-39.318-27.493L20.238,214.2l-.495,1.8c-1.938,7.045-1.076,20.853,1.742,27.9c1.196,2.989,1.712,3.169,1.724.6.009-1.925,1.105-4.953,1.992-5.501.307-.19,1.893,1.083,4.342,3.485c4.307,4.226,7.979,7.007,12.492,9.464c2.819,1.535,10.489,4.852,11.219,4.852.177,0,1.273.429,2.434.954c1.162.524,3.462,1.537,5.112,2.251c2.813,1.217,4.874,2.275,9.2,4.724c4.838,2.738,15.6,12.163,15.6,13.662c0,.972,1.147.262,2.552-1.58c5.531-7.252,18.956-15.618,33.448-20.843c8.313-2.997,17.517-8.913,22.876-14.703c1.507-1.628,2.482-2.379,2.885-2.225.79.304,2.239,4.185,2.239,5.999c0,2.927,1.687-.579,3.29-6.839c1.324-5.164.96-23.856-.462-23.789-.125.006-.736,1.147-1.356,2.537-4.681,10.485-17.448,20.101-34.072,25.663-6.626,2.217-22.094,4.996-22.679,4.075-.17-.267-.312-15.555-.315-33.972-.007-38.256-.451-34.317,3.868-34.311c2.143.003,4.388-.161,16.704-1.22c4.02-.346,4.445-.315,5.2.37c3.77,3.424,9.022,1.215,9.022-3.794c0-4.639-4.626-6.602-8.719-3.7-1.245.882-1.988,1.151-2.692.974-.535-.134-3.361-.418-6.281-.63-19.396-1.409-17.109-.562-17.102-6.33.007-5.307-.01-5.259,2.311-6.436.944-.479,2.783-1.937,4.088-3.242c13.723-13.723,1.681-36.793-17.605-33.727m8.018,10.323c9.895,4.989,6.617,19.519-4.418,19.581-11.991.068-14.281-16.456-2.803-20.222c1.538-.505,5.677-.137,7.221.641m106.467,53.861c-4.585,1.322-7.39,8.905-5.314,14.367c3.094,8.144,13.016,8.625,16.385.796c3.799-8.832-2.606-17.605-11.071-15.163m-25.098.369c-.145.235.285.627.976.888l1.237.466v8.474v8.473l-1.2.418c-2.246.783-1.337,1.26,2.4,1.26c3.711,0,4.419-.364,2.5-1.284-1.064-.51-1.1-.631-1.1-3.721v-3.195l3.6-.203c7.801-.438,10.872-7.194,5.041-11.089-1.514-1.011-12.876-1.423-13.454-.487m40,0c-.145.235.285.627.976.888l1.237.466v8.474v8.473l-1.2.418c-2.246.783-1.337,1.26,2.4,1.26c3.711,0,4.42-.364,2.5-1.282-1.068-.512-1.103-.633-1.215-4.222L216.77,196h3.34c4.653,0,5.225.561,5.61,5.504.192,2.468,1.103,3.696,2.742,3.696c1.327,0,1.502-.78.338-1.507-.64-.4-.8-.933-.8-2.67c0-2.689-.535-4.163-1.925-5.307L225,194.833l1.062-.917c2.929-2.526,2.511-6.595-.854-8.312-1.791-.913-12.498-1.228-13.021-.383m19.891,1.448c.146,2.242.842,2.632,1.709.957.6-1.161.761-1.226,3.031-1.226h2.398l-.108,8.495L239,203.39l-1.1.527c-1.92.919-1.211,1.283,2.5,1.283c3.737,0,4.646-.477,2.4-1.26l-1.2-.418v-8.58-8.58l2.483.119c2.277.109,2.503.202,2.718,1.119.449,1.912,1.781,1.288,1.921-.9l.122-1.9h-8.444-8.444l.122,1.869m26.519-1.464c-.158.255.244.631.966.904l1.237.466v8.474v8.473l-1.2.418c-2.246.783-1.337,1.26,2.4,1.26c3.711,0,4.42-.364,2.5-1.282-1.069-.512-1.103-.632-1.215-4.234l-.115-3.707l5.315.111l5.315.112v3.595c0,3.527-.021,3.604-1.1,4.121-1.919.92-1.211,1.284,2.5,1.284s4.42-.364,2.5-1.283l-1.1-.527-.108-8.327-.108-8.326l1.211-.458c1.974-.745,1.15-1.271-2.189-1.397-3.537-.133-4.773.422-2.689,1.209l1.283.484-.006,3.413c-.008,4.649.239,4.458-5.626,4.325L263.4,194.2l-.114-3.865-.114-3.865l1.235-.272c.68-.149,1.166-.479,1.082-.734-.205-.621-6.522-.858-6.892-.259m22.603.156c0,.308.529.745,1.175.97l1.175.41.125,7.329c.163,9.53,1.43,11.496,7.429,11.521c6.315.027,8.096-2.914,8.096-13.367v-5.737l1-.251c2.45-.615,1.078-1.436-2.4-1.436-3.655,0-4.64.69-2.2,1.54l1.2.418-.03,6.321c-.042,8.642-1.178,10.893-5.51,10.914-4.183.021-5.365-1.945-5.585-9.289-.205-6.808.004-8.137,1.335-8.471c2.442-.613,1.062-1.433-2.41-1.433-2.65,0-3.4.124-3.4.561m22.8,0c0,.308.54.749,1.2.979l1.2.418v8.211v8.21l-1.2.621c-2.016,1.043-1.403,1.4,2.4,1.4c3.737,0,4.646-.477,2.4-1.26l-1.2-.418v-3.761-3.761l1.5.019c2.363.03,8.103,7.434,6.3,8.126-1.537.589-.39,1.055,2.6,1.055c3.338,0,3.952-.381,2.142-1.329-1.077-.564-7.736-8.541-7.74-9.272-.004-.72,5.997-7.755,7.067-8.284c1.785-.882,1.257-1.31-1.769-1.433-3.009-.121-3.314.066-2.426,1.487.726,1.164-4.777,7.631-6.494,7.631h-1.18v-3.757c0-3.673.022-3.762,1-4.007c2.45-.615,1.078-1.436-2.4-1.436-2.65,0-3.4.124-3.4.561m20.997-.156c-.158.255.235.628.942.894l1.212.458.125,7.021c.168,9.528,1.233,11.404,6.773,11.936c6.71.645,8.751-2.258,8.751-12.446v-6.337l1.204-.455C346.061,185.5,345.12,185,341.6,185s-4.461.5-2.404,1.276l1.204.455-.006,6.734c-.007,8.513-.681,9.95-4.882,10.424-4.729.533-5.909-1.57-5.911-10.539l-.001-6.85l1.234-.247c.743-.148,1.168-.447,1.068-.75-.217-.657-6.516-.928-6.905-.298m22.603.168c0,.315.405.699.9.854c1.433.447,1.487.77,1.494,8.844.006,7.99-.185,8.929-1.823,8.929-.314,0-.571.27-.571.6c0,.486.644.6,3.4.6c3.457,0,4.801-.762,2.406-1.363-1.229-.308-1.482-1.234-1.326-4.845l.12-2.792l1.6-.094c2.428-.142,8.347,7.292,6.4,8.039-1.537.589-.39,1.055,2.6,1.055c3.223,0,4.543-.776,2.285-1.343-.513-.129-2.228-1.857-3.9-3.93-4.441-5.505-4.162-4.977-3.316-6.277c1.911-2.94,5.648-7.185,6.668-7.574c1.817-.694.843-1.276-2.137-1.276-2.853,0-3.618.355-2.596,1.204.914.758.796,1.004-2.224,4.62-3.991,4.778-5.585,4.663-5.574-.404.007-3.121.18-3.583,1.494-3.993c2.234-.697.955-1.427-2.5-1.427-2.684,0-3.4.121-3.4.573M184.758,187.56c.992.928,1.242,1.485,1.242,2.774c0,3.721-1.677,4.988-6.329,4.784L177,195l-.114-4.3-.113-4.3h3.371c3.168,0,3.446.07,4.614,1.16m19.639.284c4.758,4.299,3.251,14.017-2.439,15.721-5.778,1.731-10.083-5.113-7.868-12.509c1.39-4.639,6.845-6.339,10.307-3.212m19.972-.408c3.573,3.006.815,6.748-4.781,6.485L217,193.8l-.115-3.7-.115-3.7h3.184c2.842,0,3.317.111,4.415,1.036M107.067,210.882c-.62.383,4.148,2.505,8.018,3.568c2.461.676,4.206.852,8.315.84c4.89-.014,6.265-.219,10.802-1.609c1.814-.556,6.084-2.837,5.398-2.883-3.054-.206-32.185-.131-32.533.084M32.8,211.941c0,1.001,7.618,3.653,12.855,4.475c5.735.9,19.545-2.225,19.545-4.423c0-.251-5.852-.393-16.2-.393-8.91,0-16.2.153-16.2.341" fill="#080808" fill-rule="evenodd"/><path d="M0,200v200h200h200v-200-200h-200L0,0v200m92.888-79.238c16.701,5.745,18.892,29.792,3.433,37.678l-1.521.776v4.568v4.567l1.7.218c.935.119,6.244.575,11.798,1.012l10.097.795l1.761-1.188c5.696-3.844,11.968,2.276,8.284,8.084-.915,1.443-1.486,1.907-2.7,2.194l-1.54.364-.105,15.085L123.99,210h6.805h6.805v-1c0-.55-.18-1-.4-1s-.4-.439-.4-.976-.18-1.088-.4-1.224-.4-.687-.4-1.224-.18-.976-.4-.976-.4-.439-.4-.976-.18-1.088-.4-1.224-.4-.687-.4-1.224-.18-.976-.4-.976-.4-.54-.4-1.2-.18-1.2-.4-1.2-.4-.45-.4-1s.18-1,.4-1s.4.439.4.976.18,1.088.4,1.224.4.687.4,1.224.18.976.4.976.4.54.4,1.2.18,1.2.4,1.2.4.439.4.976.18,1.088.4,1.224.4.687.4,1.224.18.976.4.976.4.439.4.976.18,1.088.4,1.224.4.597.4,1.024c0,.498.274.776.767.776c2.994,0,2.547.991-1.267,2.813-9.298,4.442-20.923,4.307-29.878-.348-2.554-1.327-2.905-1.929-1.35-2.317c1.34-.333,2.098-1.21,2.115-2.448.007-.495.193-.9.413-.9s.4-.439.4-.976.18-1.088.4-1.224.4-.687.4-1.224.18-.976.4-.976.4-.439.4-.976.18-1.088.4-1.224.4-.599.4-1.029.18-1.139.4-1.576.58-1.153.8-1.59.4-1.157.4-1.6.18-.805.4-.805.4-.54.4-1.2.18-1.2.4-1.2.4-.439.4-.976.18-1.088.4-1.224.4-.687.4-1.224.18-.976.4-.976.4-.45.4-1s.18-1,.4-1s.4.349.4.776-.18.888-.4,1.024-.4.687-.4,1.224-.18.976-.4.976-.4.439-.4.976-.18,1.088-.4,1.224-.4.599-.4,1.029-.18,1.139-.4,1.576-.58,1.153-.8,1.59-.4,1.157-.4,1.6-.18.805-.4.805-.4.54-.4,1.2-.18,1.2-.4,1.2-.4.439-.4.976-.18,1.088-.4,1.224-.4.599-.4,1.029c0,.755-.144,1.145-1.138,3.066-.254.492-.462,1.257-.462,1.7s-.18.805-.4.805-.4.27-.4.6c0,.511,1.067.6,7.2.6h7.2v-14.995-14.994l-1.449-.606c-1.775-.741-1.751-.741-1.751-.005c0,.33-.18.6-.4.6s-.4.362-.4.805-.167,1.118-.371,1.5-.505,1.055-.67,1.495c-.278.742-.312.729-.469-.187-.092-.543.029-1.053.271-1.133.241-.081.439-.672.439-1.313c0-.642.18-1.167.4-1.167.497,0,.532-1.871.041-2.174-.197-.122-5.102.136-10.9.573-5.797.438-11.126.797-11.841.798l-1.3.003v33.6c0,18.48.135,33.599.3,33.598s2.64-.346,5.5-.768c24.746-3.645,44.027-15.2,50.406-30.208.613-1.442,1.26-2.622,1.439-2.622c1.357,0,2.673,16.291,1.762,21.814-1.577,9.566-5.407,17.389-5.407,11.046c0-5.187-1.318-6.829-3.441-4.288-3.394,4.059-13.423,11.051-19.362,13.498-1.428.588-5.117,2.096-8.197,3.351-13.577,5.532-23.327,11.82-28.825,18.591-2.933,3.612-2.881,3.599-4.517,1.187-5.222-7.695-16.465-14.766-34.858-21.921-8.477-3.298-16.803-8.693-21.573-13.977-2.997-3.321-4.427-1.926-4.427,4.319c0,5.1-4.145-4.017-5.167-11.365-1.081-7.774.261-22.255,2.063-22.255.167,0,.304.225.304.5s.531,1.62,1.179,2.99c6.92,14.629,26.527,26.197,49.621,29.275c1.87.249,4.075.555,4.9.679l1.5.226v-33.635-33.635l-1.3-.003c-.715-.001-6.018-.358-11.784-.793s-10.747-.69-11.069-.567c-.741.285-1.133,1.263-.63,1.574.211.13.383.665.383,1.189s.18,1.064.4,1.2.4.687.4,1.224.18.976.4.976.4.439.4.976.18,1.088.4,1.224.4.687.4,1.224.18.976.4.976.4.439.4.976.18,1.088.4,1.224.4.687.4,1.224.18.976.4.976.4.54.4,1.2.18,1.2.4,1.2.4.439.4.976.18,1.088.4,1.224.4.687.4,1.224.18.976.4.976.4.439.4.976.18,1.088.4,1.224.4.687.4,1.224.18.976.4.976.4.439.4.976.18,1.088.4,1.224.4.676.4,1.2.18,1.064.4,1.2.4.59.4,1.01c0,.855,1.112,1.59,2.407,1.59c1.52,0,.624.934-2.351,2.45-9.049,4.612-20.353,4.622-29.64.027-3.504-1.734-3.84-2.275-1.631-2.628c1.373-.22,1.615-.404,1.615-1.23c0-.535.18-1.083.4-1.219s.4-.687.4-1.224.18-.976.4-.976.4-.54.4-1.2.18-1.2.4-1.2.4-.439.4-.976.18-1.088.4-1.224.4-.687.4-1.224.18-.976.4-.976.4-.439.4-.976.18-1.088.4-1.224.4-.687.4-1.224.18-.976.4-.976.4-.54.4-1.2.18-1.2.4-1.2.4-.439.4-.976.18-1.088.4-1.224.4-.687.4-1.224.18-.976.4-.976.4-.439.4-.976.18-1.088.4-1.224.4-.687.4-1.224.18-.976.4-.976.4-.54.4-1.2.18-1.2.4-1.2.4-.439.4-.976.17-1.082.377-1.21c.208-.128-.175-1.123-.852-2.211-3.607-5.803,2.601-11.907,8.195-8.058l1.799,1.238l10.141-.798c5.577-.44,10.905-.897,11.84-1.016l1.7-.218v-4.567-4.568l-1.587-.809c-7.335-3.742-11.969-13.715-10.236-22.027c2.557-12.263,15.118-19.607,26.711-15.618M82.215,131.623C73.017,136.211,76.105,150,86.331,150c6.791,0,11.208-6.169,9.205-12.857-1.529-5.101-8.429-7.961-13.321-5.52m-31.72,47.991l-.904.364.104,15.511L49.8,211l6,.115c7.431.142,7.72.083,7.487-1.506-.098-.665-.337-1.209-.532-1.209s-.355-.439-.355-.976-.18-1.088-.4-1.224-.4-.687-.4-1.224-.18-.976-.4-.976-.4-.439-.4-.976-.18-1.088-.4-1.224-.4-.599-.4-1.029-.18-1.139-.4-1.576-.58-1.153-.8-1.59-.4-1.157-.4-1.6-.18-.805-.4-.805-.4-.54-.4-1.2-.18-1.2-.4-1.2-.4-.362-.4-.805c0-.778-.142-1.164-1.138-3.09-.254-.492-.462-1.246-.462-1.676s-.18-.893-.4-1.029-.4-.687-.4-1.224-.18-.976-.4-.976-.4-.439-.4-.976-.18-1.088-.4-1.224-.4-.667-.4-1.181c0-.719-.827-1.584-1.333-1.394-.037.014-.474.189-.972.389m77.505.61c0,.58-.173.916-.4.776-.22-.136-.4-.597-.4-1.024s.18-.776.4-.776.4.461.4,1.024m-82.4.352c0,.563-.18,1.024-.4,1.024s-.4.54-.4,1.2-.18,1.2-.4,1.2-.4.439-.4.976-.18,1.088-.4,1.224-.4.687-.4,1.224-.18.976-.4.976-.4.439-.4.976-.18,1.088-.4,1.224-.4.687-.4,1.224-.18.976-.4.976-.4.439-.4.976-.18,1.088-.4,1.224-.4.599-.4,1.029-.18,1.139-.4,1.576-.58,1.153-.8,1.59-.4,1.157-.4,1.6-.18.805-.4.805-.4.54-.4,1.2-.18,1.2-.4,1.2-.4.439-.4.976-.18,1.088-.4,1.224-.4.687-.4,1.224-.16.976-.355.976-.434.544-.532,1.209c-.233,1.589.056,1.648,7.487,1.506l6-.115v-15.6-15.6l-1.5-.124c-1.375-.114-1.5-.039-1.5.9m83.2,1.824c0,.44-.18.8-.4.8s-.4-.36-.4-.8.18-.8.4-.8.4.36.4.8m.8,2.4c0,.414.18.864.4,1s.4.676.4,1.2.18,1.064.4,1.2.4.687.4,1.224.18.976.4.976.4.45.4,1-.18,1-.4,1-.4-.439-.4-.976-.18-1.088-.4-1.224-.4-.687-.4-1.224-.18-.976-.4-.976-.4-.54-.4-1.2-.18-1.2-.4-1.2-.4-.461-.4-1.024c0-.58.173-.916.4-.776.22.136.4.586.4,1m75.164.126c3.289,1.649,5.244,5.5,5.216,10.274-.078,13.298-17.042,15.25-19.115,2.2-1.547-9.733,5.949-16.46,13.899-12.474M185.928,185c6.433,3.877,3.186,11.994-5.003,12.505l-3.325.208v2.553c0,2.363.076,2.583,1.01,2.938c3.252,1.236,1.361,2.852-3.171,2.71L171.8,205.8l-.128-1.111c-.107-.931.072-1.181,1.1-1.539l1.228-.428-.006-7.461c-.007-7.86-.063-8.188-1.494-8.634-.892-.278-1.257-1.736-.6-2.394.719-.718,12.644-.067,14.028.767m38.16-.582c4.444,1.234,6.012,6.018,3.071,9.368-.911,1.038-1.038,1.375-.583,1.55.947.363,1.817,2.475,2.088,5.071.186,1.782.451,2.533.995,2.824c1.981,1.061.363,3.101-2.04,2.573-1.697-.373-2.058-1.031-2.511-4.579-.526-4.123-1.031-4.625-4.65-4.625h-2.658l-.117,3.103c-.113,3.011-.086,3.116.91,3.494c3.268,1.243,1.391,2.86-3.154,2.717L211.8,205.8l-.128-1.111c-.107-.931.072-1.181,1.1-1.539l1.228-.428-.006-7.461c-.007-7.86-.063-8.188-1.494-8.634-.87-.272-1.262-1.732-.633-2.36.428-.428,10.588-.303,12.221.151m25.43,2.018c.162,3.073-2.775,4.788-3.19,1.863-.113-.795-.359-.899-2.128-.899h-2l-.108,7.658-.109,7.658l1.236.431c1.037.361,1.216.61,1.109,1.542L244.2,205.8l-3.639.114c-4.532.142-6.423-1.474-3.171-2.71l1.01-.384v-7.832-7.832l-1.9.122c-1.608.103-1.919.257-2.025,1.003-.141.99-1.272,1.501-2.475,1.119-.81-.257-1.237-4.43-.526-5.141.151-.151,4.246-.226,9.1-.166l8.826.107.118,2.236m16.704-1.566c.288.906-.622,1.93-1.715,1.93-.418,0-.513.74-.423,3.3l.116,3.3l4.5.113l4.5.113v-3.37c0-3.26-.032-3.377-1-3.62-.787-.198-1-.505-1-1.444v-1.192h4h4v1.192c0,.939-.213,1.246-1,1.444l-1,.251v8.156c0,7.842.03,8.157.786,8.157c1.072,0,1.837,1.45,1.181,2.24-.379.456-1.307.563-4.128.474L271.4,205.8v-1.2c0-.94.195-1.228.9-1.328.847-.12.9-.315.9-3.3v-3.172h-4.6-4.6v3.01c0,2.851.053,3.03,1.01,3.394c3.252,1.236,1.361,2.852-3.171,2.71L258.2,205.8l-.128-1.111c-.107-.931.072-1.181,1.1-1.539l1.228-.428-.006-7.461c-.007-7.86-.063-8.188-1.494-8.634-.87-.272-1.262-1.732-.633-2.36.79-.791,7.679-.269,7.955.603m22.503.416c.102.882-.068,1.135-.903,1.344-1.395.35-1.52,1.098-1.359,8.179l.137,6.058l1.306,1.166c1.867,1.668,4.72,1.668,6.588.001l1.306-1.167.126-6.845.127-6.845-1.249-.435c-1.028-.359-1.227-.621-1.126-1.489.172-1.488,7.662-1.901,8.124-.448.316.997-.409,1.995-1.451,1.995-.704,0-.751.409-.753,6.5-.003,9.428-1.075,11.636-6.159,12.692-7.732,1.605-10.633-1.91-10.637-12.892-.002-5.896-.05-6.3-.753-6.3-1.042,0-1.767-.998-1.451-1.995.248-.78.514-.826,4.133-.719l3.869.114.125,1.086m22.797-.033c.1.863-.098,1.13-1.1,1.479-1.725.602-1.959,6.468-.258,6.468c1.221,0,6.115-5.881,5.449-6.547-.227-.227-.413-.917-.413-1.533v-1.12h3.6h3.6v1.192c0,.939-.213,1.246-1.002,1.444-.93.234-7.01,7.223-6.99,8.035.017.706,6.26,7.91,7.392,8.531c1.536.843,1.821,2.277.518,2.604-3.945.99-7.904-.495-6.341-2.378.68-.819-4.453-7.028-5.809-7.028-1.483,0-1.355,6.517.131,6.728c1.093.155,1.71,1.967.855,2.509-.712.451-6.784.458-7.493.009-.826-.523-.378-1.779.844-2.365l1.095-.525v-7.799-7.799l-1.2-.418c-1.161-.405-1.658-1.749-.92-2.487.92-.92,7.92-.05,8.042,1m21.1-.383c.289.909-.623,1.93-1.724,1.93-1.052,0-.524,14.154.569,15.245c1.804,1.803,6.589,1.292,7.721-.823.236-.441.412-3.665.412-7.552v-6.783l-1-.251c-.787-.198-1-.505-1-1.444v-1.192h4h4v1.192c0,.939-.213,1.246-1,1.444l-1,.251v5.502c0,10.915-1.881,13.861-8.8,13.781-6.452-.074-7.76-2.004-7.925-11.7l-.125-7.329-1.175-.41c-1.128-.393-1.626-1.746-.908-2.464.79-.791,7.679-.269,7.955.603m22.5.383c.1.863-.098,1.13-1.1,1.479-1.217.425-1.222.438-1.222,3.447c0,4.222.891,4.217,4.331-.021c2.458-3.029,2.854-3.758,2.042-3.758-.234,0-.369-.495-.3-1.1l.127-1.1h3.4h3.4l.125,1.086c.101.877-.069,1.135-.882,1.339-.905.227-7.043,7.174-7.043,7.971c0,.915,6.308,8.232,7.288,8.453c1.25.283,1.808,1.512,1.083,2.385-.905,1.092-6.935.619-7.102-.556-.072-.507.067-1.16.308-1.45.68-.819-4.453-7.028-5.809-7.028-1.56,0-1.341,6.432.232,6.799c1.129.264,1.617,1.891.735,2.45-.955.605-6.979.421-7.519-.23-.738-.888-.131-2.219,1.011-2.219h.973v-8.2c0-7.755-.041-8.2-.751-8.2-1.042,0-1.767-.998-1.451-1.995.462-1.453,7.952-1.04,8.124.448M197.61,187.518c-6.105,3.366-3.51,16.237,3.136,15.55c7.703-.795,7.703-15.341,0-16.136-1.237-.128-2.151.043-3.136.586M177.6,190.8v3.6h2.746c4.016,0,6.004-1.974,4.904-4.868-.746-1.962-1.488-2.332-4.679-2.332h-2.971v3.6m40.083-.5l.117,3.1l2.722-.033c3.294-.04,4.438-.867,4.438-3.21c0-2.208-1.17-2.957-4.621-2.957h-2.773l.117,3.1M132.8,193.6c0,.44-.18.8-.4.8s-.4-.36-.4-.8.18-.8.4-.8.4.36.4.8" fill="none" fill-rule="evenodd"/><path d="M85.1,120.289c.715.089,1.885.089,2.6,0c.715-.088.13-.161-1.3-.161s-2.015.073-1.3.161M72.185,126.1L70.2,128.2l2.1-1.985c1.155-1.092,2.1-2.037,2.1-2.1c0-.298-.371.034-2.215,1.985m28.196.1c2.893,3.217,3.086,3.399,2.117,2-.457-.66-1.606-1.92-2.553-2.8-1.46-1.357-1.394-1.235.436.8m3.497,4.795c.366.767.736,1.324.823,1.237.183-.183-1.031-2.632-1.305-2.632-.101,0,.116.628.482,1.395M85.3,130.287c.605.091,1.595.091,2.2,0c.605-.092.11-.167-1.1-.167s-1.705.075-1.1.167m5.9.991c2.558,2.379,4.072,3.555,2.8,2.175-.77-.835-1.76-1.708-2.2-1.94s-.71-.338-.6-.235m-24.571,4.151c-.148.586-.191,1.143-.097,1.237.095.094.292-.308.439-.895.148-.586.191-1.143.097-1.237-.095-.094-.292.308-.439.895m39.039.171c.02,1.039.65,2.746.664,1.8.006-.44-.143-1.16-.332-1.6-.211-.49-.339-.568-.332-.2m-29.412,2.084c-.135.504-.222,1.816-.194,2.916.047,1.829.077,1.761.344-.8.307-2.948.259-3.64-.15-2.116M96.52,140.4c0,1.21.075,1.705.167,1.1.091-.605.091-1.595,0-2.2-.092-.605-.167-.11-.167,1.1M66.456,144c0,.33.155.96.344,1.4.217.504.344.578.344.2c0-.33-.155-.96-.344-1.4-.217-.504-.344-.578-.344-.2m28.565,1.56c-.33.638-1.357,1.808-2.283,2.6-.925.792-1.56,1.44-1.411,1.44.542,0,3.54-2.97,4.109-4.07.322-.621.495-1.13.385-1.13s-.47.522-.8,1.16m-9.716,5.127c.609.092,1.509.09,2-.005.492-.095-.005-.171-1.105-.168s-1.503.081-.895.173M70.299,152.6c.455.66,1.424,1.74,2.153,2.4.978.887.867.678-.426-.8-2.36-2.698-2.706-3.018-1.727-1.6M99.6,155.268c-1.048.952-1.299,1.297-.6.827c1.104-.744,2.938-2.518,2.562-2.478-.089.009-.972.753-1.962,1.651m-25.218,1.31c.308.371,1.113.956,1.789,1.299c1.524.775,1.281.49-.771-.903-.868-.589-1.326-.767-1.018-.396M96,157.8c-.55.314-.82.572-.6.572s.85-.258,1.4-.572.82-.572.6-.572-.85.258-1.4.572M78.554,164c0,2.75.064,3.875.142,2.5s.078-3.625,0-5-.142-.25-.142,2.5m15.6,0c0,2.75.064,3.875.142,2.5s.078-3.625,0-5-.142-.25-.142,2.5M52.6,170c.831.66,1.89,1.184,2.355,1.164.619-.027.515-.132-.388-.394-.677-.197-1.56-.721-1.962-1.164-.401-.443-.906-.806-1.122-.806s.286.54,1.117,1.2m23.5-.924c.385.1,1.015.1,1.4,0c.385-.101.07-.183-.7-.183s-1.085.082-.7.183m19.2,0c.385.1,1.015.1,1.4,0c.385-.101.07-.183-.7-.183s-1.085.082-.7.183m-50.177.824c-.705.821-1.233,1.7-1.022,1.7.082,0,.548-.54,1.036-1.2.964-1.304.955-1.628-.014-.5m27.982-.417c.497.096,1.217.092,1.6-.008.382-.1-.025-.179-.905-.174-.88.004-1.193.086-.695.182m25.2,0c.497.096,1.217.092,1.6-.008.382-.1-.025-.179-.905-.174-.88.004-1.193.086-.695.182M64,170c-1.625.253-1.664.282-.4.305.77.014,2.3-.115,3.4-.287c1.892-.294,1.913-.311.4-.304-.88.003-2.41.132-3.4.286m41.8.018c1.1.172,2.63.304,3.4.294c1.133-.015,1.018-.078-.6-.33-1.1-.172-2.63-.304-3.4-.294-1.133.015-1.018.078.6.33m-49.095.665c.497.096,1.217.092,1.6-.008.382-.1-.025-.179-.905-.174-.88.004-1.193.086-.695.182m58,0c.497.096,1.217.092,1.6-.008.382-.1-.025-.179-.905-.174-.88.004-1.193.086-.695.182M43.714,173.8c.003,1.1.081,1.503.173.895.092-.609.09-1.509-.005-2-.095-.492-.171.005-.168,1.105m85.187,0c.004.88.086,1.193.182.695.096-.497.092-1.217-.008-1.6-.1-.382-.179.025-.174.905m-84.888,2.494c.017.413,1.989,2.637,2.174,2.452.081-.081-.378-.734-1.02-1.453-.642-.718-1.161-1.168-1.154-.999m84.06.537c-.272.437-1.076,1.148-1.784,1.58-.709.432-1.061.787-.783.788.623.001,3.574-2.653,3.278-2.949-.118-.117-.438.144-.711.581M53,177.6c-.398.44-.955.8-1.238.8s-.625.178-.759.395c-.365.59,1.063.004,1.997-.82.44-.387,1.25-.786,1.8-.885l1-.181-1.038-.055c-.586-.03-1.353.294-1.762.746m65-.509c.55.1,1.36.481,1.8.845.794.659.794.657.038-.236-.465-.549-1.167-.879-1.8-.846l-1.038.055l1,.182m-61.095.396c.609.092,1.509.09,2-.005.492-.095-.005-.171-1.105-.168s-1.503.081-.895.173m57.2,0c.609.092,1.509.09,2-.005.492-.095-.005-.171-1.105-.168s-1.503.081-.895.173m-48.905.53c1.21.167,2.92.296,3.8.287c1.383-.014,1.301-.058-.6-.321-1.21-.167-2.92-.296-3.8-.287-1.383.014-1.301.058.6.321m39-.017c-1.9.261-1.92.275-.4.298.88.012,2.59-.114,3.8-.281c2.166-.3,2.172-.304.4-.298-.99.004-2.7.13-3.8.281m-29.1.682c.495.096,1.305.096,1.8,0c.495-.095.09-.173-.9-.173s-1.395.078-.9.173m20.8,0c.495.096,1.305.096,1.8,0c.495-.095.09-.173-.9-.173s-1.395.078-.9.173M78.2,212.738v33.862l-1.8-.078-1.8-.079l1.781.372c1.316.274,1.862.242,2.094-.122.401-.631.426-67.384.025-67.631-.165-.102-.3,15.052-.3,33.676m16.067-33.671c-.379.378-.321,67.029.058,67.626.232.364.778.396,2.094.122l1.781-.372-1.8.079-1.8.078v-33.9c0-18.645-.015-33.9-.033-33.9-.019,0-.154.12-.3.267m103.871,5.239c-.254.162.674.294,2.062.294s2.316-.132,2.062-.294-1.182-.294-2.062-.294-1.808.132-2.062.294m-25.877.394c-.103.165,1.551.252,3.676.194c6.845-.188,7.6-.348,1.987-.422-3.012-.04-5.561.063-5.663.228m39.999,0c-.102.165,1.462.252,3.477.193c6.616-.192,7.35-.348,1.987-.421-2.902-.04-5.361.063-5.464.228m19.614-.041c-.373.373-.35,4.141.026,4.141.165,0,.238-.9.161-2l-.138-2h8.477h8.477l-.138,1.981c-.077,1.089.008,1.834.187,1.654.179-.179.269-1.116.2-2.081L249,184.6l-8.426-.108c-4.634-.059-8.549.016-8.7.167m26.788.041c-.102.165,1.417.3,3.376.3s3.562-.135,3.562-.3-1.519-.3-3.376-.3-3.46.135-3.562.3m12.84.2c-.291.792.105,1.501.831,1.488.597-.011.592-.056-.041-.425-.39-.227-.604-.581-.477-.788.355-.574,6.333-.466,6.929.125.404.401.451.361.237-.2-.336-.882-7.161-1.064-7.479-.2m9.456.065c-.278.725.116,1.446.766,1.403.343-.022.337-.087-.024-.233-1.727-.697-.341-1.335,2.9-1.335c3.226,0,4.519.578,2.99,1.337-.225.112-.18.156.1.1.281-.057.51-.449.51-.87c0-1.034-6.854-1.414-7.242-.402m13.2,0c-.278.725.116,1.446.766,1.403.343-.022.337-.087-.024-.233-1.727-.697-.341-1.335,2.9-1.335c3.226,0,4.519.578,2.99,1.337-.225.112-.18.156.1.1.281-.057.51-.449.51-.87c0-1.034-6.854-1.414-7.242-.402m13.142-.276c3.31.134,4.559.719,3.09,1.448-.225.112-.18.156.1.1.281-.057.51-.449.51-.87c0-.697-.328-.769-3.6-.793l-3.6-.027l3.5.142m8.434.338c-.132.345-.046.821.191,1.058.307.307.364.176.197-.461-.228-.871-.166-.888,2.786-.758c1.66.074,2.934-.001,2.832-.166-.392-.629-5.751-.338-6.006.327m9.328-.327c-.102.165,1.417.3,3.376.3s3.562-.135,3.562-.3-1.519-.3-3.376-.3-3.46.135-3.562.3m12.757.4c-.214.561-.167.601.237.2.315-.312,1.647-.5,3.544-.5s3.229.188,3.544.5c.404.401.451.361.237-.2-.226-.593-.802-.7-3.781-.7s-3.555.107-3.781.7m9.539-.135c-.278.725.116,1.446.766,1.403.343-.022.337-.087-.024-.233-1.727-.697-.341-1.335,2.9-1.335c3.226,0,4.519.578,2.99,1.337-.226.112-.18.156.1.1.28-.057.51-.449.51-.87c0-1.034-6.854-1.414-7.242-.402m12.104-.265c-.102.165,1.22.3,2.938.3s3.04-.135,2.938-.3-1.424-.3-2.938-.3-2.836.135-2.938.3m-164.677,1.329l-1.385,1.229l1.6-1.113c.88-.612,1.675-1.165,1.767-1.229.091-.064-.005-.116-.215-.116s-1.005.553-1.767,1.229m29.248-1.101c.636.487,3.167,1.808,3.167,1.653c0-.268-2.518-1.778-2.967-1.78-.201,0-.291.056-.2.127m-37.199,1.719c.531.686,1.046,1.176,1.145,1.088.098-.088-.336-.649-.966-1.247l-1.144-1.088.965,1.247m19.581.385c.762.897,1.613,1.977,1.891,2.4.278.422.249.228-.065-.432-.313-.66-1.164-1.74-1.891-2.4l-1.321-1.2l1.386,1.632m153.206-.749c.493.791.448.999-.435,2L358.2,189.4l1.1-.97c1.266-1.116,1.37-1.709.436-2.481-.607-.501-.617-.472-.115.334m-157.588.238c.092.067.707.437,1.367.824l1.2.702-.944-.823c-.52-.453-1.135-.824-1.367-.824s-.347.054-.256.121m21.016.454c.686.299,1.541.962,1.9,1.473.358.512.651.726.651.477c0-.653-2.339-2.528-3.131-2.509-.368.008-.107.26.58.559m10.751.625c-.341.66-.475,1.2-.298,1.2s.526-.54.776-1.2c.249-.66.383-1.2.298-1.2-.086,0-.435.54-.776,1.2m39.944,2.4c0,2.09.068,2.945.15,1.9s.082-2.755,0-3.8-.15-.19-.15,1.9m9.455,3.519l.199,7.081.111-6.77c.061-3.724-.029-6.91-.199-7.081-.171-.171-.22,2.875-.111,6.77m13.2-.4l.199,6.681.111-6.369c.062-3.504-.028-6.51-.198-6.682-.171-.171-.222,2.695-.112,6.37m9.51,1.619l.11,8.262-1.243.7c-2.099,1.184-1.307,1.698,2.656,1.722l3.568.023-3.5-.138c-3.709-.145-4.249-.499-2.3-1.507l1.2-.621v-8.166c0-4.491-.135-8.249-.3-8.352-.165-.102-.251,3.532-.191,8.077m12.265-6.128c-1.038,1.215-1.817,2.268-1.731,2.338.086.071,1.018-.923,2.07-2.209c2.427-2.967,2.169-3.065-.339-.129m11.432,4.69c.003,3.795.138,7.108.3,7.363.162.254.294-2.851.294-6.9s-.135-7.363-.3-7.363-.297,3.105-.294,6.9m22.637-6.267c-1.085,2.826-.036,7.002,1.737,6.92.948-.044.935-.066-.18-.307l-1.2-.259v-3.494c0-3.79,0-3.791-.357-2.86m10.183.689L361.451,189l1.275-1.175c1.325-1.222,1.477-1.44.974-1.403-.165.012-.738.597-1.274,1.3m-85.842,7.273l.016,8.395l1.1.527c1.92.919,1.211,1.283-2.5,1.283s-4.42-.364-2.5-1.282c1.121-.536,1.941-6.633,1.017-7.563-.174-.175-.26,1.277-.19,3.228.128,3.546.128,3.547-1,4.087-2.356,1.13-1.429,1.73,2.673,1.73c4.037,0,5.003-.577,2.8-1.674l-1-.498-.216-8.314-.217-8.314.017,8.395m63.581-1.395c0,3.85.06,5.425.133,3.5s.073-5.075,0-7-.133-.35-.133,3.5m2.798-.4c0,3.63.06,5.115.135,3.3.074-1.815.074-4.785,0-6.6-.075-1.815-.135-.33-.135,3.3m-27.204-5.1c-1.752,2.021-2.272,2.7-2.069,2.7.117,0,.877-.81,1.689-1.8c1.502-1.834,1.8-2.537.38-.9m34.009,6.9c0,4.4.058,6.255.13,4.121.072-2.133.072-5.733.001-8-.072-2.266-.131-.521-.131,3.879m-64.009-1.8c0,3.19.062,4.495.138,2.9s.076-4.205,0-5.8-.138-.29-.138,2.9M188.2,190.8c0,1.278.132,2.116.294,1.862s.294-1.092.294-1.862-.132-1.608-.294-1.862-.294.584-.294,1.862m17.255-1.4c.925,1.579.945,1.603.945,1.111c0-.232-.371-.847-.824-1.367l-.823-.944.702,1.2M193.8,192c-.152.691-.193,1.341-.091,1.442.102.102.3-.389.441-1.092.333-1.667.01-1.99-.35-.35m15.244-.2c.329,1.471.558,1.79.55.767-.003-.422-.189-1.037-.412-1.367-.297-.438-.334-.276-.138.6m103.046.628c-.564.696-1.4,1.184-2.2,1.283l-1.29.161l1.225.064c1.117.058,3.89-1.997,3.346-2.479-.094-.083-.581.354-1.081.971m2.53.51c-1.093,1.433-1.255,2.07-.625,2.459.228.141.294-.021.156-.38s.213-1.219.825-2.021c.586-.768.975-1.396.865-1.396s-.659.602-1.221,1.338M206.87,194.8c-.044,1.21-.174,2.65-.287,3.2l-.206,1l.429-.982c.236-.54.365-1.98.287-3.2l-.142-2.218-.081,2.2m56.398-1.2c.161.491,1.139.604,5.365.62l5.167.021-4.775-.134c-2.972-.083-4.998-.317-5.365-.62-.478-.395-.553-.373-.392.113m-76.005.847c-.278.447-1.262,1.154-2.185,1.573-.923.42-1.444.766-1.158.771c1.208.021,4.554-2.45,4.029-2.975-.099-.099-.407.185-.686.631m-10.361-.047c.124.461.849.607,3.13.631l2.968.032-2.789-.152c-1.543-.084-2.941-.366-3.13-.631-.241-.338-.294-.303-.179.12m48.474.038c-.149.241.056.736.455,1.1.682.623.693.619.173-.068-.472-.624-.468-.784.022-1.094.36-.228.397-.366.098-.37-.262-.003-.599.191-.748.432m131.824.206c0,.233.585,1.048,1.3,1.813.715.764,1.013,1.019.662.566-.35-.453-.935-1.268-1.3-1.812-.364-.544-.662-.799-.662-.567M223.722,196.81c.567.446,1.148,1.18,1.291,1.631.143.45.348.731.456.623.495-.494-1.51-3.018-2.423-3.051-.195-.007.11.352.676.797m128.545-.543c-1.262,1.261.045,7.733,1.562,7.733.314,0,.571.27.571.6c0,.486-.644.6-3.4.6-3.196,0-4.733-.694-2.9-1.309.288-.097.246-.15-.1-.125-.33.023-.658.452-.73.953-.128.9-.081.91,3.596.796c4.1-.127,5.175-.875,2.857-1.989-1.104-.53-1.123-.599-1.123-4.033c0-1.922-.015-3.494-.033-3.494-.019.001-.154.121-.3.268M193.668,197c-.006.44.143,1.16.332,1.6.438,1.019.438-.032,0-1.4-.257-.804-.323-.843-.332-.2m15.578.267c-.025.367-.15.997-.276,1.4-.218.695-.207.696.227.02.251-.391.376-1.021.276-1.4-.162-.619-.185-.621-.227-.02m89.608,2.2c-.029.477-.158,1.197-.284,1.6-.218.694-.206.695.226.021.251-.391.379-1.111.285-1.6-.172-.887-.172-.887-.227-.021m16.101,1.052c.848,1.034,1.625,1.881,1.727,1.881.273,0-2.261-3.14-2.805-3.476-.255-.158.23.56,1.078,1.595m-106.956.284c-.28.676-1.25,1.874-2.154,2.662-.905.788-1.285,1.246-.845,1.018c1.518-.786,4.195-4.221,3.686-4.73-.098-.098-.407.374-.687,1.05m111.014.921c.615.838,1.628,1.787,2.252,2.11c1.885.974,1.305,1.362-2.165,1.446l-3.3.081l3.162.137c3.603.157,4.661-.335,3.079-1.433-.528-.366-1.676-1.385-2.552-2.265l-1.593-1.6l1.117,1.524m-122.925.489c.598.63,1.159,1.064,1.247.966.088-.099-.402-.614-1.088-1.145L195,201.069l1.088,1.144m163.612-.382c.863,1.025.871,1.318.061,2.212-1.076,1.189-.304,1.557,3.263,1.557c4.06,0,4.689-.878,1.676-2.343-1.613-.784-1.652-.786-.756-.041.52.431,1.195.784,1.5.784.306,0,.556.27.556.6c0,.483-.622.6-3.2.6-2.99,0-4.137-.466-2.6-1.055.879-.338.732-1.509-.3-2.383-.899-.761-.899-.761-.2.069m-18.875,1.538L339.45,205l1.555-1.487c.855-.817,1.474-1.551,1.375-1.63-.099-.08-.799.589-1.555,1.486m-112.793-.872c-.018.383.328.921.768,1.196s.8.726.8,1.003c0,.745-2.008.613-2.969-.196-.83-.699-.83-.699-.069.2.464.548,1.212.9,1.913.9c1.483,0,1.941-1.07.836-1.951-.448-.357-.912-.919-1.031-1.249-.172-.475-.223-.455-.248.097m56.332.236c.216.403.707.988,1.091,1.3.432.351.335.071-.254-.733-1.05-1.435-1.444-1.702-.837-.567m12.436.831c-.77.75-1.038,1.171-.596.937.875-.464,2.426-2.046,2.16-2.203-.09-.054-.794.516-1.564,1.266m-123.507-.184c-1.46.806-1.532,1.062-.163.585.698-.244,1.27-.606,1.27-.804c0-.199-.045-.343-.1-.322-.055.022-.508.265-1.007.541m3.88-.013c.408.492,2.027,1.151,2.027.825c0-.073-.558-.412-1.24-.752-.938-.468-1.13-.485-.787-.073m36.12.013c-1.46.806-1.532,1.062-.163.585.698-.244,1.27-.606,1.27-.804c0-.199-.045-.343-.1-.322-.055.022-.508.265-1.007.541m3.88-.013c.408.492,2.027,1.151,2.027.825c0-.073-.558-.412-1.24-.752-.938-.468-1.13-.485-.787-.073m20.92.013c-1.295.715-1.502,1-.546.75.455-.119,1.035-.467,1.289-.773.539-.65.471-.648-.743.023m3.507-.188c0,.181.54.518,1.2.748s1.2.351,1.2.268c0-.082-.54-.419-1.2-.748s-1.2-.45-1.2-.268m18.093.188c-1.46.806-1.532,1.062-.163.585.698-.244,1.27-.606,1.27-.804c0-.199-.045-.343-.1-.322-.055.022-.508.265-1.007.541m3.88-.013c.408.492,2.027,1.151,2.027.825c0-.073-.558-.412-1.24-.752-.938-.468-1.13-.485-.787-.073m-64.51.365c.747.215,1.697.215,2.34,0c.89-.296.666-.361-1.258-.361-2.054,0-2.186.045-1.082.361m90.03-.068c.951.376,3.396.395,3.967.03.253-.162-.695-.298-2.107-.302s-2.249.118-1.86.272m19.707-.33c0,.103.581.39,1.291.638.71.247,1.115.285.9.084-.456-.427-2.191-.998-2.191-.722m24.046.303c.519.328,3.883.535,3.521.216-.092-.081-1.046-.241-2.121-.357-1.195-.128-1.739-.074-1.4.141M173.7,205.494c1.045.082,2.755.082,3.8,0s.19-.15-1.9-.15-2.945.068-1.9.15m40,0c1.045.082,2.755.082,3.8,0s.19-.15-1.9-.15-2.945.068-1.9.15m24.8,0c1.045.082,2.755.082,3.8,0s.19-.15-1.9-.15-2.945.068-1.9.15m21.6,0c1.045.082,2.755.082,3.8,0s.19-.15-1.9-.15-2.945.068-1.9.15M106,210.757c0,.197.279.465.621.596.341.131.52.075.397-.123-.123-.199.003-.453.28-.564.276-.112.097-.217-.398-.234-.495-.018-.9.129-.9.325m6.5-.059c1.925.073,5.075.073,7,0s.35-.133-3.5-.133-5.425.06-3.5.133m15,0c1.815.074,4.785.074,6.6,0c1.815-.075.33-.135-3.3-.135s-5.115.06-3.3.135m12.1.102c.776.501,1.2.501,1.2,0c0-.22-.405-.397-.9-.394-.728.005-.785.08-.3.394M32,211.551c0,.521,1.179,1.404,1.476,1.106.142-.141.047-.257-.209-.257-.257,0-.467-.18-.467-.4c0-.26,5.681-.4,16.243-.4c14.273,0,16.215.073,16.012.6-.126.33-.078.6.109.6.515,0,1.265-1.038.966-1.337-.402-.402-34.13-.315-34.13.088m-12.401,3.452c-.255.772-.388,1.627-.296,1.9.092.274.295-.183.452-1.014s.456-1.406.665-1.277c.209.13.38-.045.38-.388c0-1.126-.728-.653-1.201.779M130.2,214.8c-.504.217-.578.344-.2.344.33,0,.96-.155,1.4-.344.504-.217.578-.344.2-.344-.33,0-.96.155-1.4.344m-10.7.682c.495.096,1.305.096,1.8,0c.495-.095.09-.173-.9-.173s-1.395.078-.9.173m6,0c.495.096,1.305.096,1.8,0c.495-.095.09-.173-.9-.173s-1.395.078-.9.173m-73.3.918l-1.6.286l1.4.029c.77.016,1.76-.126,2.2-.315.943-.405.262-.405-2,0m96.437,4.3c-.812,1.265-1.058,1.808-.547,1.206c1.01-1.188,2.457-3.506,2.189-3.506-.091,0-.83,1.035-1.642,2.3m-129.744.1c0,.77.082,1.085.183.7.1-.385.1-1.015,0-1.4-.101-.385-.183-.07-.183.7m134.816,2c0,.99.078,1.395.173.9.096-.495.096-1.305,0-1.8-.095-.495-.173-.09-.173.9M18.534,225.2c0,1.65.071,2.325.157,1.5.087-.825.087-2.175,0-3-.086-.825-.157-.15-.157,1.5M29.6,227.8c1.86,1.87,3.472,3.4,3.582,3.4s-1.322-1.53-3.182-3.4-3.472-3.4-3.582-3.4s1.322,1.53,3.182,3.4m114-.8c-.972.99-1.677,1.8-1.567,1.8s.995-.81,1.967-1.8s1.677-1.8,1.567-1.8-.995.81-1.967,1.8m10.528.6c0,1.43.073,2.015.161,1.3.089-.715.089-1.885,0-2.6-.088-.715-.161-.13-.161,1.3M18.447,231.033c.026,1.302.184,2.907.35,3.567.167.661.211-.328.097-2.2-.239-3.96-.515-4.804-.447-1.367m121.545-.922c-.775.709-2.035,1.796-2.8,2.415-1.167.943-1.089.92.476-.145c1.662-1.131,4.363-3.598,3.907-3.57-.096.006-.809.591-1.583,1.3m13.709,2.089c.004.88.086,1.193.182.695.096-.497.092-1.217-.008-1.6-.1-.382-.179.025-.174.905M19.256,237.6c0,.33.155.96.344,1.4.217.504.344.578.344.2c0-.33-.155-.96-.344-1.4-.217-.504-.344-.578-.344-.2M29.6,243c1.86,1.87,3.472,3.4,3.582,3.4s-1.322-1.53-3.182-3.4-3.472-3.4-3.582-3.4s1.322,1.53,3.182,3.4m113.586-.3L141,245l2.3-2.186c2.137-2.032,2.483-2.414,2.186-2.414-.062,0-1.097,1.035-2.3,2.3m-119.757-.471c-.148.586-.191,1.143-.097,1.237.095.094.292-.308.439-.895.148-.586.191-1.143.097-1.237-.095-.094-.292.308-.439.895m125.63,1.571c.115,1.1.278,2.225.362,2.5.187.607.979.669.979.076c0-.233-.18-.312-.4-.176-.238.147-.411-.368-.428-1.276-.016-.838-.184-1.884-.375-2.324-.227-.524-.275-.111-.138,1.2M59,243.6c.44.189,1.07.344,1.4.344.378,0,.304-.127-.2-.344-.44-.189-1.07-.344-1.4-.344-.378,0-.304.127.2.344m3.2.8c.44.189,1.07.344,1.4.344.378,0,.304-.127-.2-.344-.44-.189-1.07-.344-1.4-.344-.378,0-.304.127.2.344m43.6.8c-.504.217-.578.344-.2.344.33,0,.96-.155,1.4-.344.504-.217.578-.344.2-.344-.33,0-.96.155-1.4.344m32.8,1.444l-1.6,1.432l1.8-1.315c.99-.724,1.875-1.371,1.967-1.438.091-.068.001-.12-.2-.117-.202.003-1.087.65-1.967,1.438M70,246c.55.176,1.36.32,1.8.32.633,0,.592-.066-.2-.32-.55-.176-1.36-.32-1.8-.32-.633,0-.592.066.2.32m31,0c-1.078.274-1.098.306-.2.313.55.004,1.45-.137,2-.313c1.344-.431-.108-.431-1.8,0m-66.056,1.509c.316.512,2.656,2.244,2.656,1.966c0-.099-.661-.684-1.468-1.3-.808-.616-1.343-.916-1.188-.666m97.752,3.041c-1.921,1.181-2.458,1.739-.896.931c1.254-.648,2.945-1.855,2.6-1.856-.11,0-.877.416-1.704.925M70.8,265.318c0,.092,1.08.924,2.4,1.85s2.4,1.598,2.4,1.495-.855-.799-1.9-1.546c-2.297-1.642-2.9-2.016-2.9-1.799m24.567,4.511L93.8,271.258l1.7-1.296c1.553-1.184,1.932-1.562,1.567-1.562-.074,0-.839.643-1.7,1.429m-4.38,3.871L88.6,276.2l2.5-2.387c2.322-2.218,2.683-2.613,2.387-2.613-.061,0-1.186,1.125-2.5,2.5" fill="#747474" fill-rule="evenodd"/><path d="M85.3,119.887c.605.091,1.595.091,2.2,0c.605-.092.11-.167-1.1-.167s-1.705.075-1.1.167M81,120.4c-1.019.438.032.438,1.4,0c.804-.257.843-.323.2-.332-.44-.006-1.16.143-1.6.332m9.4,0c1.368.438,2.419.438,1.4,0-.44-.189-1.16-.338-1.6-.332-.643.009-.604.075.2.332m2.4.491c.346.329,4.8,2.273,4.8,2.095c0-.236-2.789-1.62-4-1.984-.55-.166-.91-.216-.8-.111M72.03,125.57c-1.303,1.303-2.578,2.788-2.832,3.3-.272.545.005.352.67-.469.622-.769,2.026-2.254,3.119-3.3c1.094-1.045,1.859-1.901,1.7-1.901-.158,0-1.353,1.066-2.657,2.37m30.025,2.04c.74.996,1.67,2.256,2.068,2.8.442.605.38.367-.159-.61-.485-.88-1.415-2.14-2.068-2.8-1.124-1.138-1.115-1.106.159.61m-34.274,3.627c-.352.681-.569,1.308-.482,1.395s.457-.47.823-1.237c.822-1.725.537-1.857-.341-.158m14.424-.01c-1.677.837-4.605,3.46-4.605,4.126c0,.215.625-.339,1.389-1.232c3.847-4.494,10.943-4.481,14.871.028.791.908,1.243,1.271,1.004.806-1.97-3.839-8.551-5.777-12.659-3.728M105.656,134c0,.33.155.96.344,1.4.217.504.344.578.344.2c0-.33-.155-.96-.344-1.4-.217-.504-.344-.578-.344-.2m-39.802,4.1c-.131,1.155-.096,3.09.079,4.3.272,1.884.317,1.583.309-2.1-.01-4.886-.055-5.137-.388-2.2m40.686,2.5c-.003,3.07.059,3.535.265,2c.148-1.1.149-2.9.004-4-.204-1.533-.266-1.066-.269,2m-30.026-.4c.003,1.1.081,1.503.173.895.092-.609.09-1.509-.005-2-.095-.492-.171.005-.168,1.105m19.6.4c.003,1.1.081,1.503.173.895.092-.609.09-1.509-.005-2-.095-.492-.171.005-.168,1.105m-.814,3.472c-1.412,3.894-4.994,6.092-9.552,5.861-1.591-.08-2.68-.011-2.42.155c3.485,2.216,13.761-3.421,12.598-6.911-.08-.239-.362.164-.626.895m10.529,1.757c-.148.586-.191,1.143-.097,1.237.095.094.292-.308.439-.895.148-.586.191-1.143.097-1.237-.095-.094-.292.308-.439.895m-27.488.472c1.071,1.524,3.567,3.524,3.937,3.155.14-.141.034-.256-.237-.256s-1.42-.945-2.554-2.1c-1.341-1.367-1.741-1.646-1.146-.799m24.879,5.268c-1.218,1.898-3.3,4.028-5.82,5.957-.996.762-1.03.835-.2.432c1.33-.647,6.012-5.421,6.923-7.058c1.1-1.98.521-1.55-.903.669m-33.717.631c.457.66,1.697,2.01,2.753,3c1.708,1.6,1.659,1.511-.44-.8-3.16-3.479-3.277-3.59-2.313-2.2m7.797,6.632c1.216.709,1.036,9.448-.2,9.686-.772.148-.743.181.2.228l1.1.054v-4.72c0-4.598-.268-5.7-1.38-5.668-.231.007-.105.196.28.42m17.58.048c-.319.319-.48,2.062-.48,5.2v4.72l1.1-.054c.943-.047.972-.08.2-.228-1.236-.238-1.416-8.977-.2-9.686.385-.224.511-.413.28-.42s-.636.204-.9.468m-48.339,9.517c-.473.191-1.002.585-1.177.875-.246.409-.188.428.259.082.317-.246,1.117-.637,1.777-.869s.93-.425.6-.428-.987.15-1.459.34M53,169.765c.66.567,1.365,1.032,1.567,1.033.434.002.429-.002-1.367-1.161l-1.4-.903l1.2,1.031m15.8-.565l-2.6.262l2.2.034c1.21.019,3.1-.106,4.2-.278c2.625-.408.193-.42-3.8-.018m31.4.003c2.051.335,6.466.514,6.167.25-.092-.082-1.967-.245-4.167-.363-2.771-.148-3.385-.114-2,.113m19,.597c-.745.55-1.185.994-.978.986.402-.016,2.933-1.981,2.556-1.984-.123-.001-.833.448-1.578.998m-60.4.2l-2.6.262l2.2.029c1.21.017,3.19-.107,4.4-.274c2.948-.408.001-.42-4-.017m51.2-.003c2.301.339,6.654.512,6.367.253-.092-.082-2.057-.246-4.367-.363-2.944-.149-3.542-.117-2,.11m-65.902.503c-.399.499-1.166,2.68-.809,2.3.281-.299,1.469-2.8,1.329-2.8-.066,0-.3.225-.52.5m.671,7.372c.522.785.69,1.368.438,1.524-.224.138-.407.691-.407,1.228s-.18.976-.4.976-.4.54-.4,1.2-.18,1.2-.4,1.2-.4.439-.4.976-.18,1.088-.4,1.224-.4.687-.4,1.224-.18.976-.4.976-.4.439-.4.976-.18,1.088-.4,1.224-.4.687-.4,1.224-.18.976-.4.976-.4.54-.4,1.2-.18,1.2-.4,1.2-.4.439-.4.976-.18,1.088-.4,1.224-.4.687-.4,1.224-.18.976-.4.976-.4.439-.4.976-.18,1.088-.4,1.224-.4.687-.4,1.224-.18.976-.4.976-.4.54-.4,1.2-.18,1.2-.4,1.2-.4.439-.4.976-.18,1.088-.4,1.224-.4.673-.4,1.194c0,.566-.282,1.021-.7,1.13-.385.101-.07.19.7.198s1.207-.065.971-.163c-.502-.209-.25-2.559.274-2.559.195,0,.355-.439.355-.976s.18-1.088.4-1.224.4-.687.4-1.224.18-.976.4-.976.4-.54.4-1.2.18-1.2.4-1.2.4-.362.4-.805.18-1.163.4-1.6.58-1.153.8-1.59.4-1.146.4-1.576.18-.893.4-1.029.4-.687.4-1.224.18-.976.4-.976.4-.439.4-.976.18-1.088.4-1.224.4-.687.4-1.224.18-.976.4-.976.4-.439.4-.976.18-1.088.4-1.224.4-.687.4-1.224.18-.976.4-.976.4-.54.4-1.2.18-1.2.4-1.2.4-.461.4-1.024c0-.939.125-1.014,1.5-.9l1.5.124v15.7c0,13.689.077,15.7.6,15.7.525,0,.586-1.952.491-15.609-.107-15.314-.094-15.616.694-15.907.515-.191-.085-.317-1.672-.354-2.276-.052-2.567-.164-3.631-1.393L43.924,176.6l.845,1.272m82.694.128c-.588.66-.888,1.2-.666,1.2s.403.349.403.776.18.888.4,1.024c.227.14.4-.196.4-.776c0-.563-.192-1.024-.427-1.024s-.043-.54.427-1.2.782-1.2.693-1.2c-.088,0-.642.54-1.23,1.2M53.2,178c-.44.44-1.025.806-1.3.813-.305.007-.228.219.2.544.385.292.7.906.7,1.363c0,.458.18.944.4,1.08s.4.687.4,1.224.18.976.4.976.4.439.4.976.18,1.088.4,1.224.4.599.4,1.029.208,1.184.462,1.676c.996,1.926,1.138,2.312,1.138,3.09c0,.443.18.805.4.805s.4.54.4,1.2.18,1.2.4,1.2.4.362.4.805.18,1.163.4,1.6.58,1.153.8,1.59.4,1.146.4,1.576.18.893.4,1.029.4.687.4,1.224.18.976.4.976.4.439.4.976.18,1.088.4,1.224.4.687.4,1.224.16.976.355.976c.524,0,.776,2.35.274,2.559-.236.098.201.187.971.197c1.137.016,1.269-.057.7-.388-.385-.224-.7-.748-.7-1.164s-.18-.868-.4-1.004-.4-.676-.4-1.2-.18-1.064-.4-1.2-.4-.687-.4-1.224-.18-.976-.4-.976-.4-.439-.4-.976-.18-1.088-.4-1.224-.4-.687-.4-1.224-.18-.976-.4-.976-.4-.439-.4-.976-.18-1.088-.4-1.224-.4-.687-.4-1.224-.18-.976-.4-.976-.4-.54-.4-1.2-.18-1.2-.4-1.2-.4-.439-.4-.976-.18-1.088-.4-1.224-.4-.687-.4-1.224-.18-.976-.4-.976-.4-.439-.4-.976-.18-1.088-.4-1.224-.4-.687-.4-1.224-.18-.976-.4-.976-.4-.439-.4-.976-.18-1.088-.4-1.224-.4-.651-.4-1.144-.173-1.069-.383-1.279c-.462-.462-.101-1.084.983-1.699.44-.25.575-.459.3-.466s-.86.348-1.3.788m65.3-.368c.738.43.984,2.368.3,2.368-.22,0-.4.525-.4,1.167c0,.641-.198,1.232-.439,1.313-.242.08-.363.59-.271,1.133.157.916.191.929.469.187.165-.44.466-1.113.67-1.495s.371-1.057.371-1.5.18-.805.4-.805.4-.289.4-.643c0-.416.218-.559.621-.404.356.136.516.069.376-.158-.134-.217-.482-.395-.772-.395s-.751-.27-1.025-.6-.701-.595-.949-.588-.136.196.249.42m-61.667.116c.092.081,2.147.244,4.567.36c2.998.145,3.699.11,2.2-.108-2.285-.333-7.058-.511-6.767-.252m52.167.269c-1.141.166-.11.202,2.4.085c2.42-.113,4.475-.273,4.567-.354.272-.242-4.804-.046-6.967.269m-41.367.53c.092.08,2.237.241,4.767.357c3.054.14,3.861.104,2.4-.107-2.273-.328-7.461-.51-7.167-.25m30.167.267c-1.105.159.057.197,2.6.084c2.53-.113,4.675-.271,4.767-.351.274-.242-5.216-.043-7.367.267M78.191,212.8c0,18.59.049,26.195.109,16.9s.06-24.505,0-33.8-.109-1.69-.109,16.9m16.4,0c0,18.59.049,26.195.109,16.9s.06-24.505,0-33.8-.109-1.69-.109,16.9m27.798-33.126c.795.294.811.601.811,15.313v15.013h-7.2c-6.133,0-7.2-.089-7.2-.6c0-.33.18-.6.4-.6s.4-.362.4-.805.18-1.163.4-1.6.58-1.153.8-1.59.4-1.146.4-1.576.18-.893.4-1.029.4-.687.4-1.224.18-.976.4-.976.4-.54.4-1.2.18-1.2.4-1.2.4-.362.4-.805c0-.778.142-1.164,1.138-3.09.254-.492.462-1.246.462-1.676s.18-.893.4-1.029.4-.687.4-1.224.18-.976.4-.976.4-.439.4-.976.18-1.088.4-1.224.4-.597.4-1.024-.18-.776-.4-.776-.4.45-.4,1-.18,1-.4,1-.4.439-.4.976-.18,1.088-.4,1.224-.4.687-.4,1.224-.18.976-.4.976-.4.54-.4,1.2-.18,1.2-.4,1.2-.4.362-.4.805-.18,1.163-.4,1.6-.58,1.153-.8,1.59-.4,1.146-.4,1.576-.18.893-.4,1.029-.4.687-.4,1.224-.18.976-.4.976-.4.439-.4.976-.18,1.088-.4,1.224-.4.687-.4,1.224-.18.976-.4.976-.406.405-.413.9c-.016,1.138-.776,2.152-1.797,2.395-.434.104,6.95.185,16.41.181s16.705-.08,16.1-.169c-.752-.109-1.1-.398-1.1-.91c0-.412-.18-.861-.4-.997s-.4-.687-.4-1.224-.18-.976-.4-.976-.4-.439-.4-.976-.18-1.088-.4-1.224-.4-.687-.4-1.224-.18-.976-.4-.976-.4-.54-.4-1.2-.18-1.2-.4-1.2-.4-.439-.4-.976-.18-1.088-.4-1.224-.4-.687-.4-1.224-.18-.976-.4-.976-.4.45-.4,1s.18,1,.4,1s.4.54.4,1.2.18,1.2.4,1.2.4.439.4.976.18,1.088.4,1.224.4.687.4,1.224.18.976.4.976.4.439.4.976.18,1.088.4,1.224.4.687.4,1.224.18.976.4.976.4.45.4,1v1h-6.805-6.805l.105-15.082.105-15.082l1-.251c.598-.149.071-.242-1.311-.23-1.498.013-2.025.125-1.5.319M128,182.4c0,.44.18.8.4.8s.4-.36.4-.8-.18-.8-.4-.8-.4.36-.4.8m.8,2.176c0,.563.18,1.024.4,1.024s.4.54.4,1.2.18,1.2.4,1.2.4.439.4.976.18,1.088.4,1.224.4.687.4,1.224.18.976.4.976.4-.45.4-1-.18-1-.4-1-.4-.439-.4-.976-.18-1.088-.4-1.224-.4-.676-.4-1.2-.18-1.064-.4-1.2-.4-.586-.4-1-.18-.864-.4-1c-.227-.14-.4.196-.4.776m42.967-.034c-.129.336-.15.937-.047,1.335.119.459.204.308.234-.412L172,184.33l6.372.135c7.054.149,7.627.338,9.528,3.131c1.099,1.615,1.2,1.183.128-.549-1.526-2.463-2.729-2.832-9.727-2.982-5.368-.115-6.334-.045-6.534.477m32.056.208c.892.413,2.406,1.629,3.365,2.701c1.727,1.933,1.821,1.789.244-.377-.913-1.252-2.711-2.454-4.232-2.829-.55-.135-.27.092.623.505m7.931-.173c-.122.317-.137.902-.034,1.3.118.456.204.301.234-.419l.046-1.142l6.424.142c3.534.078,6.009.025,5.5-.118-2.013-.567-11.936-.374-12.17.237m19.72-.318c-.711.711-.284,4.884.526,5.141.944.3,2.4-.089,2.4-.641c0-.241-.292-.231-.771.025-1.466.785-2.079.114-1.948-2.134l.119-2.05h8.6h8.6l.12,2.067c.129,2.233-.842,3.194-2.139,2.117-.399-.331-.581-.344-.581-.041c0,.691,1.93,1.013,2.623.438.447-.371.581-1.114.495-2.745L249.4,184.2l-8.826-.107c-4.854-.06-8.949.015-9.1.166m26.68.318c-.122.317-.137.902-.034,1.3.122.473.203.343.234-.377l.046-1.1h3.557c3.618,0,4.525.416,3.786,1.736-.196.35-.138.351.238.004.289-.266.386-.813.232-1.3-.341-1.074-7.656-1.314-8.059-.263M271.2,184.3c0,.165,1.8.3,4,.3s4-.135,4-.3-1.8-.3-4-.3-4,.135-4,.3m9.398.505c-.315.994.408,1.995,1.441,1.995.687,0,.751.483.866,6.5l.124,6.5-.014-6.582-.015-6.583-1-.235c-.645-.152-1-.513-1-1.018c0-.982,6.835-1.437,7.497-.499.279.397.326.378.201-.083-.293-1.081-7.756-1.076-8.1.005m13.269-.538c-.726.726-.218,2.072.933,2.473l1.2.418.088,6.121.087,6.121.128-5.6c.148-6.517.022-7.298-1.204-7.472-.59-.084-.899-.403-.899-.928c0-.728.341-.82,3.8-1.023l3.8-.224-3.833-.076c-2.109-.043-3.954.043-4.1.19m9.613-.014c-.738.738-.241,2.082.92,2.487l1.2.418v7.799v7.799l-1.095.525c-2.952,1.415-1.409,2.729,3.095,2.637l3.4-.069-3.596-.225c-3.971-.247-4.975-1.019-2.727-2.096l1.123-.538.114-7.395c.129-8.411.04-9.089-1.215-9.267-.59-.084-.899-.403-.899-.928c0-.734.305-.81,3.672-.915l3.672-.114.186,1.114c.181,1.087.184,1.084.128-.085l-.058-1.2-3.82-.114c-2.101-.062-3.946.013-4.1.167m11.72.047c0,.165,1.62.3,3.6.3s3.6-.135,3.6-.3-1.62-.3-3.6-.3-3.6.135-3.6.3m9.354.277c-.122.317-.137.902-.034,1.3.121.467.204.328.234-.392l.046-1.115l3.7.115c3.564.111,3.699.149,3.667,1.028-.021.565.109.771.34.54.205-.205.252-.751.106-1.213-.341-1.074-7.656-1.314-8.059-.263M337.6,184.3c0,.165,1.8.3,4,.3s4-.135,4-.3-1.8-.3-4-.3-4,.135-4,.3m13.183.069c3.603.22,3.798.279,4.079,1.231.274.93.289.916.216-.2L355,184.2l-4-.031-4-.032l3.783.232m8.177.191c-.125.326-.143.919-.04,1.317.122.473.203.343.234-.377l.046-1.1h3.173c3.076,0,3.179.031,3.349,1.005.161.92.171.912.127-.1-.059-1.329-6.402-2.014-6.889-.745m-164.761,1.495c-.786.69-1.617,1.635-1.847,2.1-.229.465.051.273.622-.427.572-.699,1.531-1.638,2.133-2.087.601-.449.964-.821.807-.828s-.929.552-1.715,1.242m32.091-.266c1.456,1.189,2.286,3.569,1.932,5.544-.209,1.175-.195,1.195.196.278.872-2.044-.46-5.412-2.549-6.446-.488-.241-.303.032.421.624m89.256.746c.686.827-4.029,6.665-5.382,6.665-1.443,0-1.501-5.797-.064-6.409.887-.377.885-.382-.1-.287-1.623.156-1.561,6.831.065,7.019.91.105,1.452-.355,3.7-3.14c2.851-3.531,2.965-3.771,1.978-4.149-.523-.201-.563-.14-.197.301m-142.746.157c1.098.418,1.188,1.061,1.194,8.569l.006,7.461-1.228.428c-1.028.358-1.207.608-1.1,1.539l.128,1.111l3.639.114c4.532.142,6.423-1.474,3.171-2.71-.934-.355-1.01-.575-1.01-2.938v-2.553l3.325-.208c3.515-.219,5.169-.823,6.473-2.364l.796-.941-.997.85c-1.72,1.466-2.779,1.815-6.339,2.086l-3.458.264-.117,2.888c-.113,2.78-.081,2.897.871,3.136c1.012.254,1.625,1.162,1.224,1.812-.571.923-7.378.417-7.378-.548c0-.647.35-1.045,1.2-1.366l1.2-.453v-7.461c0-7.608-.241-9.035-1.514-8.976-.554.025-.571.075-.086.26m25.738.014c-.254.162.494.294,1.662.294s1.916-.132,1.662-.294-1.002-.294-1.662-.294-1.408.132-1.662.294m14.262-.014c1.098.418,1.188,1.061,1.194,8.569l.006,7.461-1.228.428c-1.028.358-1.207.608-1.1,1.539l.128,1.111l3.639.114c4.545.143,6.422-1.474,3.154-2.717-.996-.378-1.023-.483-.91-3.494l.117-3.103h2.672c1.546,0,2.431-.135,2.1-.32-.315-.176-1.607-.266-2.872-.2l-2.3.12-.115,3.489c-.113,3.416-.095,3.493.871,3.736c1.01.253,1.623,1.162,1.222,1.811-.571.923-7.378.417-7.378-.548c0-.647.35-1.045,1.2-1.366l1.2-.453v-7.461c0-7.608-.241-9.035-1.514-8.976-.554.025-.571.075-.086.26m46.4,0c1.098.418,1.188,1.061,1.194,8.569l.006,7.461-1.228.428c-1.028.358-1.207.608-1.1,1.539l.128,1.111l3.639.114c4.532.142,6.423-1.474,3.171-2.71-.957-.364-1.01-.543-1.01-3.394v-3.01h4.584h4.584l.134,3.3.135,3.3.082-3.5.081-3.5h-5-5v3.392c0,3.258.038,3.402.971,3.636.997.251,1.606,1.162,1.207,1.808-.571.923-7.378.417-7.378-.548c0-.647.35-1.045,1.2-1.366l1.2-.453v-7.461c0-7.608-.241-9.035-1.514-8.976-.554.025-.571.075-.086.26m4.667-.025c-.147.146-.267,1.763-.267,3.592c0,3.964-.208,3.834,5.8,3.658l4-.117v-3.595c0-2.908-.114-3.602-.6-3.638-.345-.025-.387.027-.1.124.347.116.5,1.201.5,3.551v3.384l-4.5-.113-4.5-.113-.116-3.268c-.101-2.86-.026-3.29.6-3.453.557-.145.575-.197.083-.233-.349-.025-.754.074-.9.221m13.112.244c-.108.281-.144,4.106-.079,8.5l.118,7.989.091-8.271c.082-7.495.157-8.287.791-8.453.656-.172.655-.186-.013-.23-.391-.025-.8.184-.908.465m22.398.004c-.109.284-.143,3.479-.077,7.1l.121,6.585.09-6.872c.088-6.776.102-6.875.989-7.046l.9-.173-.913-.055c-.501-.029-1.001.178-1.11.461m20.178.585c-.547.605-1.234,1.46-1.526,1.9-.291.44.168.052,1.02-.861.853-.914,1.821-1.755,2.151-1.869.516-.178.512-.211-.025-.238-.344-.018-1.073.463-1.62,1.068m6.345-.688c.881.355.902.512.99,7.475l.09,7.113.12-6.947c.122-7.13-.049-8.082-1.449-8.028-.441.018-.36.143.249.387m4.277.104c-.109.284-.143,3.389-.077,6.9l.122,6.384.089-6.671c.08-5.972.162-6.689.789-6.853.656-.172.655-.186-.013-.23-.391-.025-.801.186-.91.47m8.74-.26c.661.193.708.771.6,7.358-.064,3.931.022,7.008.193,6.837.795-.797.129-14.237-.71-14.323-.654-.067-.669-.044-.083.128m4.459.262c-.109.286-.143,3.121-.076,6.3l.124,5.782.088-6.071c.078-5.401.165-6.091.788-6.253.656-.172.655-.186-.013-.23-.391-.025-.802.187-.911.472m4.916-.257c.882.19.893.284,1.012,8.266l.12,8.073-.012-8.2-.012-8.2-1-.066c-.866-.056-.88-.039-.108.127m11.308.042c0,.239-.489,1.034-1.086,1.766-.893,1.095-.922,1.19-.163.535c1.078-.929,1.814-2.173,1.481-2.505-.127-.128-.232-.036-.232.204m1.937,2.797c-1.383,1.705-2.218,2.864-1.856,2.576s1.429-1.523,2.371-2.743c.941-1.221,2.08-2.369,2.53-2.551.644-.261.674-.337.144-.357-.377-.014-1.786,1.345-3.189,3.075m-184.251,1.2l.114,3.9l2.6.027l2.6.028-2.5-.146-2.5-.146v-3.564-3.564l2.9-.138l2.9-.138-3.114-.08-3.115-.079.115,3.9m39.914-.5c0,1.87.135,3.4.3,3.401.165,0,.242-1.431.17-3.181l-.13-3.182l2.73-.141l2.73-.14-2.9-.079-2.9-.078v3.4m17.2-3.1c0,.165.9.238,2,.161l2-.138v7.848v7.849l-1.01.384c-3.252,1.236-1.361,2.852,3.171,2.71l3.639-.114.128-1.111c.107-.932-.072-1.181-1.109-1.542l-1.236-.431.109-7.658.108-7.658h2.101c1.155,0,2.1-.135,2.1-.3-.002-.638-4.306-.324-4.558.333-.134.348-.243,3.963-.243,8.034v7.402l1.2.453c.85.321,1.2.719,1.2,1.366c0,.965-6.807,1.471-7.378.548-.399-.646.21-1.557,1.207-1.808l.971-.243v-8.193-8.192h-2.2c-1.21,0-2.2.135-2.2.3m-50.016.975c.449.482.83,1.157.848,1.5.019.375.109.434.225.149.223-.547-.966-2.524-1.519-2.524-.203,0-.002.394.446.875m19.412-.006c.608.477,1.438,1.602,1.845,2.5.408.897.745,1.394.75,1.105.02-1.165-2.436-4.474-3.32-4.474-.208,0,.118.391.725.869m21.164,2.104c0,1.589-1.08,3.012-2.322,3.059-.499.018-.62.118-.299.246c1.518.605,3.819-2.553,2.968-4.073-.248-.444-.347-.225-.347.768m-36.067.627c0,.77.082,1.085.183.7.1-.385.1-1.015,0-1.4-.101-.385-.183-.07-.183.7m167.076.778c-.746.929-1.7,1.645-2.318,1.74l-1.051.162l1.052.06c.798.046,1.407-.374,2.527-1.74.811-.99,1.381-1.8,1.267-1.8-.115,0-.779.71-1.477,1.578m-39.383-.6c-.212.297-.803,1.098-1.313,1.781-.51.682-.84,1.241-.734,1.241.314,0,2.773-3.221,2.595-3.399-.089-.09-.336.08-.548.377m-131.354,1.093c-.018.369-.506,1.044-1.086,1.5s-.881.829-.67.829c.667,0,2.219-1.919,1.998-2.471-.144-.363-.221-.318-.242.142m5.48,1.231c-.105.937-.07,2.512.078,3.5.215,1.436.276,1.092.3-1.702.033-3.847-.084-4.404-.378-1.798M209.737,195c.002,1.76.072,2.43.156,1.489.085-.94.084-2.38-.002-3.2-.086-.819-.155-.049-.154,1.711m-15.606,0c.002,1.54.074,2.121.161,1.291s.085-2.09-.003-2.8c-.089-.71-.16-.031-.158,1.509M132,193.6c0,.44.18.8.4.8s.4-.36.4-.8-.18-.8-.4-.8-.4.36-.4.8m74.524,1.4c.002,1.32.077,1.812.166,1.093s.087-1.799-.004-2.4-.164-.013-.162,1.307m20.13-1.167c-.631.554-1.067,1.087-.971,1.183.096.097.691-.362,1.321-1.02c1.392-1.453,1.212-1.537-.35-.163m131.608-.302c-.364.403-.662.88-.662,1.061c0,.483,2.543,3.781,2.927,3.796.18.006-.315-.772-1.1-1.729-1.631-1.991-1.666-2.132-.765-3.128.364-.402.572-.731.462-.731s-.498.329-.862.731M314,194.613c0,.476,6.59,8.582,6.978,8.585.209.001-.172-.583-.845-1.298-.674-.715-2.329-2.707-3.679-4.426-1.35-1.72-2.454-3.007-2.454-2.861m-4.933,1.654c-.368.368-.338,6.442.033,6.673.165.102.242-1.327.171-3.177-.146-3.795.507-4.39,2.703-2.463l1.026.9-.97-1.1c-.908-1.03-2.359-1.438-2.963-.833m44.839.022c1.46.267,6.248,6.443,5.602,7.226-.418.506-.406.581.067.425c1.129-.373.823-1.089-1.873-4.392-2.021-2.475-2.99-3.358-3.718-3.387-.892-.035-.899-.023-.078.128M228.281,200c.14,1.674.471,2.885.928,3.4.391.44.798,1.16.905,1.6.148.613.204.546.24-.286.03-.709-.232-1.234-.754-1.514-.563-.301-.814-.869-.847-1.914-.026-.817-.192-2.026-.368-2.686-.204-.76-.242-.248-.104,1.4m-22.413-1.128c-.147.587-.756,1.665-1.354,2.397-.901,1.104-.928,1.195-.159.532c1.104-.952,2.156-2.867,1.937-3.525-.086-.258-.277.01-.424.596m19.209,1.928c.126,1.43.295,2.675.376,2.767.289.328.061-3.387-.269-4.367-.21-.627-.25-.03-.107,1.6m89.144-.6c.812.99,1.549,1.8,1.64,1.8.313,0-2.462-3.569-2.788-3.584-.18-.009.337.794,1.148,1.784m47.775.194c.694.877,1.471,1.724,1.727,1.882.255.158-.23-.56-1.078-1.595-.848-1.034-1.625-1.881-1.727-1.881s.383.718,1.078,1.594m-75.542-.149c-.053.831,1.694,2.955,2.431,2.955.207,0-.166-.456-.828-1.014-.663-.557-1.282-1.412-1.376-1.9-.166-.855-.174-.857-.227-.041m9.146.319c0,.311-.554,1.031-1.231,1.6-.677.57-1.061,1.036-.854,1.036.576,0,2.485-2.039,2.485-2.655c0-.3-.09-.545-.2-.545s-.2.254-.2.564m-100.082.483c.565,1.055,2.376,2.266,3.006,2.01.267-.109.182-.208-.193-.225-.368-.018-1.253-.615-1.966-1.328-.838-.839-1.137-1-.847-.457m134.888-.217c-.007.772,1.631,2.372,2.42,2.364.316-.003.128-.232-.418-.508s-1.218-.948-1.494-1.494c-.308-.609-.504-.748-.508-.362M342.248,202c-.458,1.039-1.276,1.931-2.374,2.589-.921.552-1.476,1.005-1.233,1.007c1.437.013,5.242-4.247,4.477-5.012-.094-.093-.485.544-.87,1.416m-44.048.531c-.44.682-1.412,1.651-2.159,2.154-.748.503-1.159.915-.914.915.589,0,3.192-2.301,3.721-3.289.683-1.276.215-1.118-.648.22m39.6-.104c-.66.423-.995.77-.744.771.25.001.88-.352,1.4-.785c1.189-.99.903-.984-.656.014m-145,.098c0,.069.585.654,1.3,1.3L195.4,205l-1.175-1.3c-1.095-1.212-1.425-1.484-1.425-1.175m123.264.175c.034.165-.071.604-.234.977-.837,1.903,2.713,3.077,6.462,2.136c1.357-.341.967-2.613-.448-2.613-.219,0-.063.244.345.542c1.595,1.167.488,1.858-2.976,1.858-3.155,0-4.418-.808-2.813-1.8.22-.136.4-.507.4-.824s-.18-.576-.4-.576-.371.135-.336.3m-30.588,1.6c.722.715,1.54,1.295,1.818,1.288s.146-.211-.294-.454c-.44-.242-1.258-.822-1.819-1.288-.56-.465-.427-.261.295.454m5.024-.824c.385.1,1.015.1,1.4,0c.385-.101.07-.183-.7-.183s-1.085.082-.7.183m20,.156c.385.224.7.789.7,1.255c0,.465.112.735.248.598.492-.492-.262-2.285-.956-2.273-.651.012-.651.036.008.42m17.871.126c.542.66,2.829,2.038,2.829,1.705c0-.086-.765-.661-1.7-1.278-.961-.634-1.452-.819-1.129-.427m5.934-.275c.497.096,1.217.092,1.6-.008.382-.1-.025-.179-.905-.174-.88.004-1.193.086-.695.182m12.685.547c-.144.457-.157.937-.027,1.067.131.13.237-.069.237-.443s.405-.843.9-1.042l.9-.361-.873-.026c-.546-.016-.972.286-1.137.805m7.076-.366c.367.295.759.896.872,1.336.12.466.176.301.134-.397-.051-.851-.303-1.236-.872-1.336-.73-.127-.742-.092-.134.397m11.634-.032c.385.224.7.699.7,1.055c0,.355.106.54.237.41.448-.449-.292-1.897-.964-1.885-.614.011-.612.048.027.42m-161.1,1.195c-.66.423-.995.77-.744.771.25.001.88-.352,1.4-.785c1.189-.99.903-.984-.656.014m21-.538c0,.503,1.143,1.501,1.412,1.232.106-.106-.168-.519-.61-.919-.441-.399-.802-.54-.802-.313m53.451.721c-.208.543-.841.625-4.012.517-2.071-.07-3.681.008-3.578.173.381.612,7.208.339,7.747-.31.278-.335.413-.703.298-.817-.114-.114-.319.083-.455.437m80.505.708c.176.175,1.743.263,3.482.197l3.162-.122-3.482-.196c-1.915-.109-3.338-.054-3.162.121m-160.983.365c.866.184,2.306.186,3.2.003c1.394-.285,1.168-.333-1.573-.335-2.701-.002-2.954.05-1.627.332m90.927.021c.946.191,2.454.191,3.4,0c1.473-.297,1.246-.343-1.7-.343s-3.173.046-1.7.343m43.792.021c1.076.204,2.518.21,3.345.015c1.194-.283.857-.347-1.891-.359-3.093-.014-3.203.012-1.454.344m16.02-.23c1.052.082,2.672.081,3.6-.003s.068-.151-1.912-.15-2.74.07-1.688.153M140.733,210.78c-.073.209-1.663,1.117-3.533,2.019s-2.95,1.517-2.4,1.368c1.659-.451,6.4-2.949,6.4-3.372c0-.503-.292-.512-.467-.015m-74.655,1.244c-.475.761-.452.79.304.386.45-.241.818-.612.818-.824c0-.655-.581-.428-1.122.438M19.6,213.799c-.294.55-.431,1.104-.304,1.231.127.126.35-.143.494-.6.145-.456.432-.83.637-.83s.373-.18.373-.4c0-.739-.66-.409-1.2.599m44-.199c-.77.422-1.256.774-1.08.783.424.022,2.68-1.151,2.68-1.393c0-.262-.023-.253-1.6.61m88.049.252c-.263.578-.399,1.132-.3,1.23.098.098.297-.195.441-.652.398-1.252.889-1,1.191.611.149.792.361,1.351.471,1.24.293-.293-.626-3.481-1.003-3.481-.176,0-.536.473-.8,1.052M113.8,214.8c.44.189,1.07.344,1.4.344.378,0,.304-.127-.2-.344-.44-.189-1.07-.344-1.4-.344-.378,0-.304.127.2.344m18,0c-.504.217-.578.344-.2.344.33,0,.96-.155,1.4-.344.504-.217.578-.344.2-.344-.33,0-.96.155-1.4.344m-14.4.823c.88.182,2.05.321,2.6.308.641-.015.426-.142-.6-.354-.88-.182-2.05-.321-2.6-.308-.641.015-.426.142.6.354m10.2-.023c-1.357.286-1.363.295-.2.307.66.008,1.65-.131,2.2-.307c1.312-.42-.004-.42-2,0m22.576,1.653c-.412.914-1.435,2.671-2.273,3.904-1.184,1.743-1.26,1.942-.342.893c1.271-1.453,3.829-5.993,3.54-6.282-.097-.097-.513.571-.925,1.485m-131.51,1.115c-.147,1.41-.192,2.639-.1,2.732.248.247.749-4.154.544-4.77-.097-.29-.296.627-.444,2.038m2.934-2.215c0,.429,1.19,2.647,1.421,2.647.11,0-.098-.585-.462-1.3-.742-1.46-.959-1.764-.959-1.347M42,216.4c.55.176,1.36.32,1.8.32.633,0,.592-.066-.2-.32-.55-.176-1.36-.32-1.8-.32-.633,0-.592.066.2.32m12.8,0c-.792.254-.833.32-.2.32.44,0,1.25-.144,1.8-.32.792-.254.833-.32.2-.32-.44,0-1.25.144-1.8.32m-7.687.695c1.163.081,2.963.081,4-.002c1.038-.082.087-.148-2.113-.147s-3.049.068-1.887.149M153.685,218.6c-.008.66.125,2.1.297,3.2.254,1.635.315,1.745.335.6.013-.77-.12-2.21-.297-3.2-.232-1.309-.324-1.472-.335-.6m-130.474.9c.006.165.557.93,1.225,1.7l1.215,1.4-1.079-1.7c-1.057-1.666-1.383-2.001-1.361-1.4M18.157,228c0,2.97.063,4.185.14,2.7s.077-3.915,0-5.4-.14-.27-.14,2.7m8.432-4.019c1.466,1.891,5.202,5.674,6.411,6.491.66.445.149-.153-1.136-1.331-1.284-1.178-3.174-3.049-4.2-4.16-1.025-1.11-1.509-1.56-1.075-1M142.4,227.305c-2.09,2.032-4.34,4.11-5,4.617l-1.2.922l1.4-.899c1.723-1.107,4.843-3.915,7.161-6.445c2.664-2.907,1.831-2.27-2.361,1.805M34.59,231.584c.294.475,4.29,3.229,5.81,4.004c1.598.815.447-.106-2.935-2.347-1.724-1.143-3.018-1.888-2.875-1.657M153.8,234.4c-.156,1.347-.199,2.534-.095,2.638s.314-.916.466-2.267c.153-1.35.196-2.537.096-2.638-.101-.1-.311.92-.467,2.267M18.493,235c.001.66.139,1.74.307,2.4.423,1.663.442.026.023-2-.278-1.345-.331-1.409-.33-.4m113.403.35c-1.921,1.181-2.458,1.739-.896.931c1.254-.648,2.945-1.855,2.6-1.856-.11,0-.877.416-1.704.925M43.2,236.996c0,.274,2.449,1.488,2.632,1.305.087-.087-.47-.457-1.237-.823s-1.395-.583-1.395-.482m109.856,1.488c-.135.504-.229,1.276-.21,1.716s.199.098.4-.76c.39-1.662.224-2.5-.19-.956m-28.856.694c-.88.417-1.487.772-1.349.79.389.05,3.149-1.154,3.149-1.373c0-.268-.001-.268-1.8.583M19.256,239.2c0,.33.155.96.344,1.4.217.504.344.578.344.2c0-.33-.155-.96-.344-1.4-.217-.504-.344-.578-.344-.2m5.39.986c-.355.542-.642,1.217-.637,1.5s.298-.071.65-.786c.831-1.685.864-1.675,3.032.835c1.014,1.175,2.803,2.923,3.976,3.885c1.374,1.127.695.296-1.908-2.336-4.559-4.607-4.248-4.418-5.113-3.098M143,242.971c-1.98,2.001-4.95,4.521-6.6,5.599-3.401,2.222-4.596,3.218-2.2,1.834c2.895-1.673,7.547-5.358,10.222-8.098c2.122-2.173,2.731-2.599,3.154-2.2.42.396.488.375.341-.106-.369-1.209-1.393-.59-4.917,2.971M120,240.8c-.99.415-1.53.752-1.2.748.672-.008,4.028-1.485,3.4-1.496-.22-.004-1.21.333-2.2.748m-96.55,2.85c-.137.688-.25,1.768-.25,2.4c0,.633-.216,1.15-.48,1.15-.37,0-.371.109-.007.473.666.666.745.466,1.016-2.573.256-2.871.133-3.511-.279-1.45m33.75-.868c.33.223.945.409,1.367.412c1.023.008.704-.221-.767-.55-.876-.196-1.038-.159-.6.138m56.8.018c-.824.264-.859.326-.2.354.44.019,1.07-.141,1.4-.354.701-.453.214-.453-1.2,0m-53.6.782c.33.223.945.409,1.367.412c1.023.008.704-.221-.767-.55-.876-.196-1.038-.159-.6.138m50.4.018c-.804.257-.843.323-.2.332.44.006,1.16-.143,1.6-.332c1.019-.438-.032-.438-1.4,0m40.11,1.609c-1.056,2.499-1.624,2.528-1.816.091-.148-1.879-.151-1.875-.222.4-.076,2.422.189,2.758,1.251,1.585.701-.774,2.017-3.679,1.776-3.919-.081-.082-.526.748-.989,1.843M20.8,244.153c0,.429,1.19,2.647,1.421,2.647.11,0-.098-.585-.462-1.3-.742-1.46-.959-1.764-.959-1.347m43,.247c.44.189,1.16.338,1.6.332.643-.009.604-.075-.2-.332-1.368-.438-2.419-.438-1.4,0m43.8,0c-.804.257-.843.323-.2.332.44.006,1.16-.143,1.6-.332c1.019-.438-.032-.438-1.4,0m-40.6.797c.764.331,3.714.558,3.367.259-.092-.079-1.067-.247-2.167-.374-1.287-.149-1.715-.108-1.2.115m36.6.003c-1.367.288-1.372.295-.2.319.66.014,1.56-.13,2-.319.962-.413.164-.413-1.8,0m-31.4.785c1.222.326,4.47.535,4.167.268-.092-.081-1.337-.246-2.767-.368-1.638-.139-2.156-.103-1.4.1M98,246l-1.8.28l1.6.013c.88.007,2.14-.125,2.8-.293c1.6-.407.019-.407-2.6,0m-64,1.353c0,.095.855.781,1.9,1.526c2.173,1.548,5.298,3.445,4.7,2.853-.604-.598-6.6-4.576-6.6-4.379m94.257,6.054c-2.914,1.43-3.94,2.109-2.174,1.437c1.601-.608,5.117-2.43,5.117-2.651c0-.249.22-.34-2.943,1.214m-82.203,1.18c.336.336,3.146,1.429,3.146,1.224c0-.11-.652-.473-1.449-.806-1.476-.616-2.033-.754-1.697-.418m13.6,5.6c.336.336,3.146,1.429,3.146,1.224c0-.11-.652-.473-1.449-.806-1.476-.616-2.033-.754-1.697-.418m48.246,2.042c-1.495.811-1.404,1.149.1.371.66-.341,1.2-.706,1.2-.81c0-.258-.043-.243-1.3.439M66.8,263.62c1.387.941,2.178,1.215,1.2.416-.55-.45-1.18-.819-1.4-.821s-.13.181.2.405m38,.416c-.664.543-.731.679-.2.404c1.305-.674,2.028-1.228,1.6-1.225-.22.002-.85.371-1.4.821m-3.119,1.736c-1.96,1.386-2.096,1.693-.281.633c1.878-1.095,2.525-1.614,1.98-1.585-.209.01-.973.439-1.699.952M70.8,265.766c0,.095,1.17.99,2.6,1.99c1.43.999,2.596,1.688,2.592,1.531-.009-.302-5.192-3.816-5.192-3.521m24.351,4.668L93.4,272.068l1.9-1.482c1.736-1.354,2.159-1.786,1.751-1.786-.081,0-.936.735-1.9,1.634m-16.07,1.682c1.366,1.274,3.235,3.164,4.151,4.2.917,1.036,1.298,1.344.847.684-.823-1.206-5.185-5.525-6.681-6.615-.441-.322.316.457,1.683,1.731M91.2,273.8c-.972.99-1.677,1.8-1.567,1.8s.995-.81,1.967-1.8s1.677-1.8,1.567-1.8-.995.81-1.967,1.8m-3.396,4.022c-1.461,1.782-1.511,1.806-2.305,1.1-.798-.709-.802-.706-.259.178.7,1.141.803,1.131,1.997-.2c1.743-1.944,2.492-2.9,2.273-2.9-.117,0-.885.82-1.706,1.822" fill="#a0a0a0" fill-rule="evenodd"/><path d="M66.101,139.8c.004.88.086,1.193.182.695.096-.497.092-1.217-.008-1.6-.1-.382-.179.025-.174.905M178.7,186.689c.715.089,1.885.089,2.6,0c.715-.088.13-.161-1.3-.161s-2.015.073-1.3.161m40.007.001c.719.089,1.799.087,2.4-.004s.013-.164-1.307-.162-1.812.077-1.093.166m16.998-.003c.609.092,1.509.09,2-.005.492-.095-.005-.171-1.105-.168s-1.503.081-.895.173m7.6,0c.609.092,1.509.09,2-.005.492-.095-.005-.171-1.105-.168s-1.503.081-.895.173m42.856,6.513c0,3.41.061,4.805.136,3.1s.075-4.495,0-6.2-.136-.31-.136,3.1m66.376-3c.002,1.76.072,2.43.156,1.489.085-.94.084-2.38-.002-3.2-.086-.819-.155-.049-.154,1.711m-175.597.6c0,1.87.069,2.635.153,1.7s.084-2.465,0-3.4-.153-.17-.153,1.7m39.994-.4c0,1.65.071,2.325.157,1.5.087-.825.087-2.175,0-3-.086-.825-.157-.15-.157,1.5m22.033,4.8c0,4.29.059,6.045.131,3.9s.072-5.655,0-7.8-.131-.39-.131,3.9m24.367-4.8c0,1.65.071,2.325.157,1.5.087-.825.087-2.175,0-3-.086-.825-.157-.15-.157,1.5M193.701,195c.004.88.086,1.193.182.695.096-.497.092-1.217-.008-1.6-.1-.382-.179.025-.174.905m24.999-1.118c.495.096,1.305.096,1.8,0c.495-.095.09-.173-.9-.173s-1.395.078-.9.173m47.616,2.415c1.383.078,3.543.077,4.8-.002c1.256-.079.124-.143-2.516-.142-2.64,0-3.668.065-2.284.144M352.54,199.6c0,1.87.069,2.635.153,1.7s.084-2.465,0-3.4-.153-.17-.153,1.7M179.1,197.089c.715.089,1.885.089,2.6,0c.715-.088.13-.161-1.3-.161s-2.015.073-1.3.161M216.934,200c0,1.65.071,2.325.157,1.5.087-.825.087-2.175,0-3-.086-.825-.157-.15-.157,1.5m46.4,0c0,1.65.071,2.325.157,1.5.087-.825.087-2.175,0-3-.086-.825-.157-.15-.157,1.5m-86.406.4c0,1.43.073,2.015.161,1.3.089-.715.089-1.885,0-2.6-.088-.715-.161-.13-.161,1.3m51.165.4c0,.77.082,1.085.183.7.1-.385.1-1.015,0-1.4-.101-.385-.183-.07-.183.7m62.407,5.076c.385.1,1.015.1,1.4,0c.385-.101.07-.183-.7-.183s-1.085.082-.7.183m43.805.007c.497.096,1.217.092,1.6-.008.382-.1-.025-.179-.905-.174-.88.004-1.193.086-.695.182" fill="#7c7c7c" fill-rule="evenodd"/></g></svg>
