<svg id="e3xj4W8BaKO1" xmlns="http://www.w3.org/2000/svg" xmlns:xlink="http://www.w3.org/1999/xlink" viewBox="0 0 500 500" shape-rendering="geometricPrecision" text-rendering="geometricPrecision" project-id="ac46f2564495491196102a0df273730d" export-id="6fe0ec8567cd44a382df01fab065a3a0" cached="false"><g transform="translate(50 50)"><path d="M195.6,98.41c-17.392,3.629-21.025,28.971-5.296,36.942l2.096,1.061v4.942v4.942l-2.097.278c-1.154.153-4.349.442-7.1.643-2.752.2-7.421.55-10.375.777-5.361.413-5.376.411-6.8-.566-3.861-2.651-8.428-.521-8.428,3.93c0,5.055,5.258,7.219,9.083,3.738.667-.607,1.194-.742,2.156-.549.701.14,4.534.447,8.518.682c3.983.234,8.953.549,11.043.698l3.8.272.102,33.978c.057,18.687-.033,34.103-.2,34.256-.166.153-1.562.117-3.102-.081-23.275-2.986-40.822-11.398-50.278-24.102-2.115-2.842-4.322-6.857-4.322-7.863c0-1.412-.801.068-1.251,2.312-1.521,7.586-.59,20.484,1.936,26.8c1.238,3.094,1.572,3.132,1.791.2.439-5.888,1.763-6.286,6.17-1.854c5.473,5.503,13.541,10.672,21.154,13.551c17.01,6.433,30.399,14.923,34.511,21.883.883,1.495.893,1.49,3.346-1.38c6.694-7.836,17.615-14.678,31.502-19.738c9.404-3.427,19.734-9.947,24.847-15.684c2.709-3.04,4.683-1.423,4.785,3.922.059,3.078,2.071-1.101,3.659-7.6.719-2.944.635-16.76-.125-20.543l-.551-2.744-1.666,3.344c-7.607,15.264-31.941,28.513-53.708,29.243l-3,.1-.11-33.2c-.125-37.605-.275-35.001,2.018-34.997c1.791.003,10.625-.582,18.275-1.209c4.102-.337,4.67-.304,5.4.315c3.902,3.303,9.15,1.189,9.15-3.685c0-4.398-4.709-6.674-8.448-4.083l-1.54,1.068-5.373-.414c-2.954-.227-7.847-.592-10.873-.811-3.025-.218-6.175-.537-7-.707l-1.499-.311-.117-4.183c-.148-5.316-.056-5.618,2.007-6.583c2.379-1.113,6.748-5.579,8.036-8.215c7.486-15.318-5.525-32.239-22.126-28.775m9.012,10.302c4.831,2.488,7.095,8.558,4.957,13.288-4.402,9.736-18.859,7.409-19.879-3.199-.745-7.759,7.985-13.662,14.922-10.089m15.992,79.694c1.272,2.058,10.306,4.436,16.996,4.472c5.944.033,16-2.808,16-4.52c0-.205-7.101-.358-16.624-.358-11.136,0-16.54.134-16.372.406M146.8,189.593c0,2.138,12.34,4.959,18.927,4.326c5.28-.506,13.473-3.169,13.473-4.378c0-.188-7.29-.341-16.2-.341-10.348,0-16.2.142-16.2.393m-18.938,84.99c-7.436,2.652-7.761,16.344-.468,19.772c6.429,3.022,12.646-1.803,12.646-9.814c0-7.638-5.673-12.277-12.178-9.958m-24.875.238c-.145.235.288.628.984.891l1.244.469-.107,8.405L105,292.99l-1.1.527c-2.12,1.015-1.128,1.683,2.5,1.683s4.619-.668,2.5-1.684c-1.064-.51-1.1-.631-1.1-3.721v-3.195l3.6-.201c7.951-.444,11.026-7.469,4.904-11.201-1.489-.908-12.791-1.228-13.317-.377m40.213.14c0,.308.54.749,1.2.979l1.2.418v8.211v8.21l-1.226.634c-2.055,1.063-1.255,1.587,2.426,1.587c3.617,0,4.716-.653,2.436-1.447L148,293.122v-3.761-3.761h3.026c4.498,0,5.774,1.15,5.774,5.206c0,2.553.437,3.389,2.066,3.957c1.761.614,2.377-.04,1.209-1.283-.529-.563-.875-1.445-.875-2.229c0-2.434-.851-4.823-2.091-5.866l-1.193-1.004l1.05-.826c3.114-2.449,2.627-6.697-.981-8.563-1.623-.839-12.785-.866-12.785-.031m19.678,1.331c.14,2.196,1.471,2.825,1.92.908.213-.907.452-1.011,2.581-1.122c3.095-.161,3.008-.417,3.015,8.857l.006,7.934-1.212.458c-2.359.89-1.324,1.673,2.212,1.673c3.36,0,4.838-.952,2.42-1.559l-1.02-.256v-8.593-8.592h2.368c2.316,0,2.374.027,2.637,1.223.465,2.117,1.995,1.486,1.995-.823v-1.8l-8.522-.108-8.522-.108.122,1.908m26.509-1.471c-.145.235.288.628.984.891l1.244.469-.107,8.405-.108,8.404-1.1.527c-2.12,1.015-1.128,1.683,2.5,1.683s4.619-.668,2.5-1.684c-1.079-.517-1.1-.594-1.1-4.121v-3.595l5.315-.112l5.315-.111-.115,3.701c-.109,3.495-.171,3.728-1.115,4.198-2.018,1.004-1.2,1.524,2.4,1.524s4.418-.519,2.4-1.525l-1-.498-.108-8.437-.108-8.437l1.243-.248c2.523-.505,1.073-1.255-2.427-1.255-3.504,0-4.95.75-2.421,1.256l1.249.25-.114,3.847-.114,3.847-4.968.113c-5.855.133-5.617.312-5.626-4.234L194,276.358l1.2-.418c.66-.23,1.2-.671,1.2-.979c0-.69-6.591-.822-7.013-.14m22.81-.016c-.158.255.235.628.942.894l1.212.458.125,7.021c.171,9.666,1.589,11.979,7.364,12.011c6.51.036,8.154-2.486,8.158-12.51l.002-6.321l1.218-.424c2.177-.759,1.135-1.334-2.418-1.334-3.568,0-4.594.575-2.393,1.343l1.244.433-.126,7.246-.125,7.245-1.282,1.145c-2.55,2.276-6.608,1.904-8.405-.771-.863-1.285-.913-1.739-.913-8.25v-6.891l1.234-.247c.743-.148,1.168-.447,1.068-.75-.217-.657-6.516-.928-6.905-.298m22.603.187c0,.326.433.701.962.834c1.328.333,1.426.971,1.433,9.245.005,7.564-.201,8.529-1.824,8.529-.933,0-.649,1.165.346,1.415c1.945.488,5.667.03,5.808-.715.077-.4-.109-.7-.434-.7-1.389,0-1.93-1.393-1.809-4.651l.118-3.149l1.326-.127c1.596-.153,1.881.068,4.907,3.799c2.569,3.17,2.721,3.568,1.667,4.376-1.037.795,0,1.338,2.567,1.346c3.138.009,4.753-1.151,2.418-1.737-.513-.129-2.228-1.857-3.9-3.93-4.441-5.505-4.162-4.977-3.316-6.277c1.824-2.807,5.593-7.215,6.182-7.232.763-.021,1.661-.973,1.279-1.355-.346-.345-5.518-.342-5.864.005-.147.147.026.592.386.989.776.858.681,1.035-2.822,5.243-3.396,4.08-5.034,3.727-5.024-1.08.007-3.121.18-3.583,1.494-3.993c2.234-.697.955-1.427-2.5-1.427-2.736,0-3.4.116-3.4.592m21.2,0c0,.326.45.706,1,.844l1,.251.024,5.856c.045,10.989,1.81,13.735,8.477,13.182c5.876-.487,7.099-2.579,7.099-12.138v-6.887l1.234-.247c2.517-.503,1.06-1.253-2.434-1.253s-4.951.75-2.434,1.253l1.234.247v6.891c0,6.511-.05,6.965-.913,8.25-1.797,2.675-5.856,3.047-8.405.771l-1.282-1.146-.139-7.24-.139-7.24l1.239-.432c2.476-.863,1.515-1.554-2.161-1.554-2.736,0-3.4.116-3.4.592m22.597-.187c-.158.255.244.631.966.904l1.237.466v8.474v8.473l-1.236.431c-2.28.794-1.181,1.447,2.436,1.447c3.681,0,4.481-.524,2.426-1.587l-1.226-.634v-3.589-3.59h1.552c1.656,0,1.934.257,5.816,5.374l1.498,1.973-.891.672c-1.374,1.036-.611,1.581,2.216,1.581c3.886,0,4.853-.639,2.673-1.767-1.293-.669-7.664-8.27-7.664-9.145c0-.985,6.004-8.202,7.041-8.463c2.269-.569,1.043-1.425-2.041-1.425-3.062,0-3.987.608-2.333,1.533.846.474-4.245,7.146-5.739,7.521-1.885.473-2.128.04-2.128-3.791v-3.563l1.234-.247c.743-.148,1.168-.447,1.068-.75-.217-.657-6.516-.928-6.905-.298m-163.028,2.426c2.194,2.194,1.493,6.181-1.255,7.139-1.977.689-6.179.558-6.471-.203-.33-.859-.31-7.567.024-7.9.938-.939,6.495-.243,7.702.964m19.608.195c6.481,5.856.798,19.021-6.623,15.342-5.096-2.525-5.648-13.049-.838-15.982c2.265-1.381,5.533-1.101,7.461.64m19.565-.856c4.333,2.241,2.196,6.745-3.307,6.971l-3.435.141v-3.841-3.841h2.82c1.658,0,3.274.235,3.922.57" fill="#0c0c0c" fill-rule="evenodd"/><path d="M0,200v200h200h200v-200-200h-200L0,0v200M206.718,98.441c7.579,2.607,12.397,8.867,13.868,18.017c1.05,6.534-4.249,16.309-10.599,19.549l-1.587.809v4.592c0,3.412.128,4.589.5,4.582.275-.006,5.607.387,11.849.874l11.348.884l1.994-1.121c5.728-3.22,11.93,2.994,8.129,8.146-.717.972-.918,1.636-.75,2.477.144.722.062,1.15-.22,1.15-.247,0-.45-.374-.45-.832c0-.829-2.011-.83-2.905-.001-.168.156-.258,6.932-.2,15.058L237.8,187.4l6.509.11c6.986.118,7.714-.1,6.554-1.958-.255-.407-.463-1.104-.463-1.547s-.18-.805-.4-.805-.4-.54-.4-1.2-.18-1.2-.4-1.2-.4-.439-.4-.976-.18-1.088-.4-1.224-.4-.597-.4-1.024.18-.776.4-.776.4.362.4.805.18,1.163.4,1.6.58,1.153.8,1.59.4,1.157.4,1.6.18.805.4.805.4.54.4,1.2.18,1.2.4,1.2.4.36.4.8.168.8.374.8c3.288,0,2.587,1.654-1.5,3.538-6.246,2.879-13.441,3.601-20.783,2.086-5.464-1.127-13.349-5.224-10.056-5.224c1.208,0,2.365-1.107,2.365-2.262c0-.516.18-.938.4-.938s.4-.439.4-.976.18-1.088.4-1.224.4-.687.4-1.224.18-.976.4-.976.4-.54.4-1.2.18-1.2.4-1.2.4-.439.4-.976.18-1.088.4-1.224.4-.687.4-1.224.18-.976.4-.976.4-.439.4-.976.18-1.088.4-1.224.4-.687.4-1.224.18-.976.4-.976.4-.54.4-1.2.18-1.2.4-1.2.4-.362.4-.805.208-1.208.462-1.7c.994-1.921,1.138-2.311,1.138-3.066c0-.43.18-.893.4-1.029s.4-.687.4-1.224.18-.976.4-.976c.503,0,.529-1.873.03-2.181-.338-.209-15.587.647-21.53,1.208l-2.5.237v33.368v33.368l1.9-.002c2.643-.002,8.485-.993,14.235-2.415c20.032-4.954,35.575-16.053,40.452-28.883.851-2.239,1.206-2.36,1.759-.6c2.316,7.382,1.721,22.003-1.205,29.591-1.936,5.019-3.141,5.678-3.141,1.717c0-2.433-.918-5.808-1.58-5.808-.161,0-1.808,1.495-3.66,3.322-5.467,5.394-14.861,11.156-22.972,14.093-14.957,5.414-26.353,12.815-33.205,21.564l-1.217,1.554-1.495-2.036c-5.409-7.369-16.802-14.899-30.671-20.271-11.037-4.275-20.167-9.848-25.486-15.557-3.396-3.645-4.377-3.048-4.72,2.874-.197,3.402-.663,3.489-2.215.415-3.079-6.099-4.208-15.576-3.028-25.42.932-7.771,1.515-8.725,2.998-4.902c3.973,10.246,16.161,20.257,31.251,25.67c7.488,2.686,23.878,6.111,25.234,5.273.524-.324.487-66.457-.038-66.782-.846-.523-23.615-1.815-24.418-1.385-.852.456-1.001,1.003-.378,1.388.22.136.4.687.4,1.224s.18.976.4.976.4.45.4,1-.18,1-.4,1-.4-.439-.4-.976-.18-1.088-.4-1.224-.4-.687-.4-1.224c0-1.065-.535-1.209-2.179-.584l-1.03.392.104,15.508.105,15.508l6.6-.023c3.63-.013,6.96-.064,7.4-.112c4.04-.448,4.018.915-.047,2.947-8.883,4.439-20.637,4.385-29.13-.134-3.242-1.725-3.588-2.283-1.64-2.648c1.166-.219,1.417-.44,1.417-1.248c0-.54.18-.982.4-.982s.4-.54.4-1.2.18-1.2.4-1.2.4-.439.4-.976.18-1.088.4-1.224.4-.687.4-1.224.18-.976.4-.976.4-.439.4-.976.18-1.088.4-1.224.4-.687.4-1.224.18-.976.4-.976.4-.54.4-1.2.18-1.2.4-1.2.4-.439.4-.976.18-1.088.4-1.224.4-.687.4-1.224.18-.976.4-.976.4-.439.4-.976.18-1.088.4-1.224.4-.687.4-1.224.18-.976.4-.976.4-.54.4-1.2.18-1.2.4-1.2.4-.439.4-.976.18-1.088.4-1.224.4-.672.4-1.19c0-.519.218-1.016.485-1.105.32-.107.048-.822-.8-2.102-3.813-5.757,2.207-12.011,8.023-8.333l1.692,1.07l11.8-.915c13.54-1.049,12.436-.527,12.301-5.818l-.101-3.993-1.8-.982c-2.852-1.555-6.888-5.848-8.313-8.843-7.971-16.75,7.675-34.72,25.031-28.748M196.08,109.022c-9.802,4.433-6.189,19.055,4.575,18.511c12.076-.61,11.899-18.668-.187-19.019-2.036-.059-3.512.112-4.388.508M233.6,157c0,.33-.18.6-.4.6s-.4.439-.4.976-.18,1.088-.4,1.224-.4.599-.4,1.029-.208,1.184-.462,1.676c-.996,1.926-1.138,2.312-1.138,3.09c0,.443-.18.805-.4.805s-.4.54-.4,1.2-.18,1.2-.4,1.2-.4.362-.4.805c0,.778-.142,1.164-1.138,3.09-.254.492-.462,1.257-.462,1.7s-.18.805-.4.805-.4.54-.4,1.2-.18,1.2-.4,1.2-.4.439-.4.976-.18,1.088-.4,1.224-.4.687-.4,1.224-.18.976-.4.976-.4.439-.4.976-.18,1.088-.4,1.224-.4.672-.4,1.19c0,.519-.225,1.035-.5,1.146-1.66.674,1.228,1.055,7.3.963l6.6-.099.105-14.893.105-14.892-1.454-.608c-1.781-.744-1.756-.744-1.756-.007m-74.4,1.152c0,.551-.18,1.112-.4,1.248s-.4.687-.4,1.224-.18.976-.4.976-.4.439-.4.976-.18,1.088-.4,1.224-.4.599-.4,1.029c0,.755-.144,1.145-1.138,3.066-.254.492-.462,1.257-.462,1.7s-.18.805-.4.805-.4.54-.4,1.2-.18,1.2-.4,1.2-.4.439-.4.976-.18,1.088-.4,1.224-.4.687-.4,1.224-.18.976-.4.976-.4.439-.4.976-.18,1.088-.4,1.224-.4.687-.4,1.224-.18.976-.4.976-.4.54-.4,1.2-.18,1.2-.4,1.2-.4.439-.4.976-.159,1.075-.352,1.194c-.194.12-.44.674-.546,1.23-.261,1.365.24,1.453,7.498,1.315l6-.115v-15.6-15.6l-1.5-.124c-1.367-.113-1.5-.035-1.5.876M242.4,160c0,.414.18.864.4,1s.4.687.4,1.224.18.976.4.976.4.45.4,1-.18,1-.4,1-.4-.439-.4-.976-.18-1.088-.4-1.224-.4-.687-.4-1.224-.18-.976-.4-.976-.4-.461-.4-1.024c0-.58.173-.916.4-.776.22.136.4.586.4,1m-73.6,2.576c0,.537.18,1.088.4,1.224s.4.597.4,1.024-.18.776-.4.776-.4-.439-.4-.976-.18-1.088-.4-1.224-.4-.597-.4-1.024.18-.776.4-.776.4.439.4.976m76,4c0,.537.18,1.088.4,1.224s.4.597.4,1.024-.18.776-.4.776-.4-.439-.4-.976-.18-1.088-.4-1.224-.4-.597-.4-1.024.18-.776.4-.776.4.439.4.976m-74.4.4c0,.537.18,1.088.4,1.224s.4.687.4,1.224.18.976.4.976.4.45.4,1-.18,1-.4,1-.4-.439-.4-.976-.18-1.088-.4-1.224-.4-.687-.4-1.224-.18-.976-.4-.976-.4-.45-.4-1s.18-1,.4-1s.4.439.4.976m76,4c0,.537.18,1.088.4,1.224s.4.687.4,1.224.18.976.4.976.4.45.4,1-.18,1-.4,1-.4-.439-.4-.976-.18-1.088-.4-1.224-.4-.687-.4-1.224-.18-.976-.4-.976-.4-.45-.4-1s.18-1,.4-1s.4.439.4.976M172.8,173.8c0,.55.18,1,.4,1s.4.439.4.976.18,1.088.4,1.224.4.687.4,1.224.18.976.4.976.4.54.4,1.2.18,1.2.4,1.2.4.439.4.976.18,1.088.4,1.224.4.687.4,1.224.18.976.4.976.4.45.4,1-.18,1-.4,1-.4-.439-.4-.976-.18-1.088-.4-1.224-.4-.687-.4-1.224-.18-.976-.4-.976-.4-.439-.4-.976-.18-1.088-.4-1.224-.4-.687-.4-1.224-.18-.976-.4-.976-.4-.54-.4-1.2-.18-1.2-.4-1.2-.4-.439-.4-.976-.18-1.088-.4-1.224-.4-.597-.4-1.024.18-.776.4-.776.4.45.4,1M135,274.19c6.871,2.945,7.859,15.504,1.56,19.837-7.02,4.83-15.01-.188-15.01-9.427c0-8.388,6.474-13.399,13.45-10.41m-19.499-.057c8.311,3.015,4.639,13.067-4.774,13.067h-2.327v2.8c0,2.517.08,2.8.786,2.8c1.061,0,1.838,1.449,1.193,2.226-.535.644-6.566.823-7.514.223-.882-.559-.394-2.186.735-2.45l1-.234.114-7.183c.131-8.262.053-8.803-1.311-9.145-.79-.199-1.003-.505-1.003-1.445v-1.192l5.9.03c3.451.018,6.44.227,7.201.503m41.062.487c3.167,1.662,4.047,5.801,1.782,8.382l-1.255,1.429.828.885c1.166,1.244,1.682,2.817,1.682,5.123c0,1.412.176,2.054.611,2.221c1.817.697,1.446,2.94-.486,2.94-2.25,0-3.721-1.925-3.73-4.88-.012-3.734-1.097-4.72-5.191-4.72h-2.436l.116,3.3c.108,3.076.177,3.309,1.015,3.428c1.093.155,1.71,1.967.855,2.509-.712.451-6.784.458-7.493.009-.826-.523-.378-1.779.844-2.365l1.095-.525v-7.799-7.799l-1.2-.418c-1.17-.408-1.656-1.75-.907-2.5.717-.716,12.255-.067,13.87.78M180.2,276.4c0,3.141-1.745,4.189-2.712,1.629-.428-1.136-.608-1.229-2.376-1.229h-1.912v8v8h.973c1.142,0,1.749,1.331,1.011,2.219-.497.599-6.011.853-7.351.338-1.134-.435-.766-2.032.576-2.5l1.208-.421-.108-7.718L169.4,277l-1.805-.118c-1.689-.11-1.836-.039-2.266,1.1-1.286,3.408-4.075.243-3.075-3.49l.243-.907l8.852.107l8.851.108v2.6m16.701-2.057c.27,1.032-.388,2.057-1.321,2.057-.712,0-.78.296-.78,3.413v3.413l4.5-.113l4.5-.113.115-3.253c.114-3.209.102-3.256-.925-3.514-.847-.212-1.017-.462-.915-1.347.17-1.48,7.143-1.947,7.902-.528.466.87-.34,2.042-1.406,2.042-.476,0-.571,1.335-.571,8.01v8.01l.945.359c3.233,1.229,1.364,2.875-3.106,2.735L202.2,295.4l-.127-1.1c-.1-.871.087-1.181.9-1.49.977-.371,1.027-.537,1.027-3.4v-3.01h-4.6-4.6v3.2c0,2.914.07,3.2.786,3.2c1.061,0,1.838,1.449,1.193,2.226-.535.644-6.566.823-7.514.223-.882-.559-.394-2.186.735-2.45l1-.234.114-7.183c.131-8.262.053-8.803-1.311-9.145-.79-.199-1.003-.505-1.003-1.445v-1.192h3.953c3.517,0,3.975.082,4.148.743m22.921.127c.289.909-.623,1.93-1.724,1.93-1.052,0-.524,14.154.569,15.245c1.804,1.803,6.589,1.292,7.721-.823.236-.441.412-3.665.412-7.552v-6.783l-1-.251c-.787-.198-1-.505-1-1.444v-1.192h4h4v1.192c0,.939-.213,1.246-1,1.444l-1,.251-.002,5.256c-.005,11.153-1.858,14.107-8.798,14.027-6.452-.074-7.76-2.004-7.925-11.7l-.125-7.329-1.175-.41c-1.128-.393-1.626-1.746-.908-2.464.79-.791,7.679-.269,7.955.603m22.5.383c.1.863-.098,1.13-1.1,1.479-1.217.425-1.222.438-1.222,3.447c0,4.222.891,4.217,4.331-.021c2.458-3.029,2.854-3.758,2.042-3.758-.234,0-.369-.495-.3-1.1l.127-1.1h3.4h3.4l.125,1.086c.102.884-.068,1.135-.915,1.347-.93.234-7.01,7.145-7.01,7.969c0,.911,6.312,8.227,7.288,8.447c1.25.283,1.808,1.512,1.083,2.385-.905,1.092-6.935.619-7.102-.556-.072-.507.067-1.16.308-1.45.68-.819-4.453-7.028-5.809-7.028-1.56,0-1.341,6.432.232,6.799c1.129.264,1.617,1.891.735,2.45-.955.605-6.979.421-7.519-.23-.738-.888-.131-2.219,1.011-2.219h.973v-8.2c0-7.755-.041-8.2-.751-8.2-1.042,0-1.767-.998-1.451-1.995.462-1.453,7.952-1.04,8.124.448m20.979-.51c.27,1.032-.388,2.057-1.321,2.057-1.025,0-1.206,12.415-.21,14.342c1.382,2.673,6.802,2.726,8.218.08.236-.441.412-3.665.412-7.552v-6.783l-1.025-.258c-.832-.208-1.002-.462-.9-1.343l.125-1.086h3.8h3.8l.125,1.086c.102.881-.068,1.135-.9,1.343l-1.025.258v5.502c0,10.762-1.834,13.71-8.575,13.78-6.466.068-8.207-2.422-8.225-11.769-.013-6.98-.081-7.33-1.5-7.773-.87-.272-1.262-1.732-.633-2.36.701-.702,7.636-.28,7.834.476m22.695-.148c.679.818.24,1.73-.979,2.036-1.497.376-1.608,6.579-.117,6.554c1.365-.024,6.067-6,5.233-6.653-1.737-1.36-.499-2.326,3.135-2.447c4.167-.138,5.695,1.513,2.518,2.72-.829.316-4.072,3.89-6.213,6.85l-.764,1.056l3.398,4.217c2.195,2.724,3.715,4.262,4.295,4.344c1.039.148,1.488,1.835.633,2.377-.294.186-1.818.342-3.386.345-3.34.007-4.175-.54-3.405-2.232.42-.92.286-1.239-1.441-3.431-1.047-1.329-2.15-2.757-2.452-3.174-.302-.416-.977-.757-1.5-.757-1.524,0-1.47,6.222.059,6.804c3.252,1.236,1.361,2.852-3.171,2.71L278.2,295.4l-.128-1.111c-.107-.931.072-1.181,1.1-1.539l1.228-.428-.006-7.461c-.007-7.86-.063-8.188-1.494-8.634-.87-.272-1.262-1.732-.633-2.36.571-.572,7.217-.289,7.729.328M128.41,277.118c-4.802,2.648-4.259,13.817.745,15.316c4.915,1.472,8.403-2.435,7.945-8.902-.394-5.57-4.596-8.671-8.69-6.414M108.4,280.4v3.6h2.746c4.147,0,5.901-1.828,4.84-5.043-.594-1.8-1.382-2.157-4.76-2.157h-2.826v3.6m40.083-.5l.117,3.1l1.582.129c3.735.305,5.818-.887,5.818-3.329c0-2.316-1.053-3-4.617-3h-3.017l.117,3.1" fill="none" fill-rule="evenodd"/><path d="M198.7,97.889c.715.089,1.885.089,2.6,0c.715-.088.13-.161-1.3-.161s-2.015.073-1.3.161M185.785,103.7l-1.985,2.1l2.1-1.985c1.155-1.092,2.1-2.037,2.1-2.1c0-.298-.371.034-2.215,1.985m28.015-.1c1.083,1.1,2.06,2,2.17,2s-.687-.9-1.77-2-2.06-2-2.17-2s.687.9,1.77,2m-14.9,4.287c.605.091,1.595.091,2.2,0c.605-.092.11-.167-1.1-.167s-1.705.075-1.1.167m-6.522,3.213L191,112.6l1.5-1.378c.825-.759,1.5-1.434,1.5-1.5c0-.306-.338-.018-1.622,1.378m-12.129,1.915c-.137.358-.234.951-.215,1.318s.193.136.387-.513c.377-1.262.244-1.887-.172-.805m39.019-.215c.02,1.039.65,2.746.664,1.8.006-.44-.143-1.16-.332-1.6-.211-.49-.339-.568-.332-.2m-9.424,3c.329,1.471.558,1.79.55.767-.003-.422-.189-1.037-.412-1.367-.297-.438-.334-.276-.138.6m-20.216,2.033c.016,1.082.176,2.327.357,2.767.193.47.241-.273.117-1.8-.254-3.145-.513-3.671-.474-.967m20.222,2.217c-.333,1.667-.01,1.99.35.35.152-.691.193-1.341.091-1.442-.102-.102-.3.389-.441,1.092m-29.782.95c-.006.44.143,1.16.332,1.6.438,1.019.438-.032,0-1.4-.257-.804-.323-.843-.332-.2m39.361,1.229c-.148.586-.191,1.143-.097,1.237.095.094.292-.308.439-.895.148-.586.191-1.143.097-1.237-.095-.094-.292.308-.439.895M191.6,124.125c0,.069.585.654,1.3,1.3l1.3,1.175-1.175-1.3c-1.095-1.212-1.425-1.484-1.425-1.175m23.027,7.38c-1.181,1.373-1.447,1.813-.664,1.095c1.187-1.087,3.076-3.407,2.764-3.395-.07.003-1.015,1.038-2.1,2.3m-29.827-.18c0,.069.585.654,1.3,1.3l1.3,1.175-1.175-1.3c-1.095-1.212-1.425-1.484-1.425-1.175m26.018,3.325c-1.882,1.336-2.047,1.568-.589.827.676-.343,1.463-.906,1.749-1.251.682-.821.499-.754-1.16.424m-21.218.75c.55.314,1.18.572,1.4.572s-.05-.258-.6-.572-1.18-.572-1.4-.572.05.258.6.572m2.398,5.919l.199,5.281.114-4.967c.063-2.732-.026-5.109-.198-5.282-.172-.172-.224,2.063-.115,4.968m15.672-.043c-.039,2.572.065,4.761.23,4.864.165.102.252-1.282.192-3.077-.194-5.88-.351-6.545-.422-1.787M166,147.4c.903.666,1.83.983,2.778.95l1.422-.05-1.686-.275c-.927-.151-2.021-.579-2.431-.95s-.902-.675-1.092-.675c-.191,0,.264.45,1.009,1m21.5-.718c.495.096,1.305.096,1.8,0c.495-.095.09-.173-.9-.173s-1.395.078-.9.173m23.2,0c.495.096,1.305.096,1.8,0c.495-.095.09-.173-.9-.173s-1.395.078-.9.173m-26.395.401c.497.096,1.217.092,1.6-.008.382-.1-.025-.179-.905-.174-.88.004-1.193.086-.695.182m29.995-.001c.495.096,1.305.096,1.8,0c.495-.095.09-.173-.9-.173s-1.395.078-.9.173m26.899.818c.523.715,1.014,1.3,1.09,1.3.304,0-.688-1.5-1.344-2.033-.432-.351-.335-.071.254.733m-63.694-.417c.497.096,1.217.092,1.6-.008.382-.1-.025-.179-.905-.174-.88.004-1.193.086-.695.182m43.6,0c.497.096,1.217.092,1.6-.008.382-.1-.025-.179-.905-.174-.88.004-1.193.086-.695.182m-46.8.4c.497.096,1.217.092,1.6-.008.382-.1-.025-.179-.905-.174-.88.004-1.193.086-.695.182m50,0c.497.096,1.217.092,1.6-.008.382-.1-.025-.179-.905-.174-.88.004-1.193.086-.695.182m6.4.4c.497.096,1.217.092,1.6-.008.382-.1-.025-.179-.905-.174-.88.004-1.193.086-.695.182M157.301,151.4c.004.88.086,1.193.182.695.096-.497.092-1.217-.008-1.6-.1-.382-.179.025-.174.905m84.372,3.031c-.272.437-1.076,1.148-1.784,1.58-.709.432-1.061.787-.783.788.623.001,3.574-2.653,3.278-2.949-.118-.117-.438.144-.711.581m-83.074.769c.436.55.794,1.023.797,1.05.002.028.454.172,1.004.319.916.247.933.229.2-.205-.44-.26-1.249-.854-1.797-1.319l-.997-.845.793,1m7.679.213c-.618.543-.96.987-.762.987s.677-.35,1.064-.777c.387-.428,1.179-.851,1.762-.941c1.055-.162,1.055-.162.058-.209-.55-.026-1.505.397-2.122.94m65.322-.722c.55.1,1.36.481,1.8.845.794.659.794.657.038-.236-.465-.549-1.167-.879-1.8-.846l-1.038.055l1,.182m-61.095.396c.609.092,1.509.09,2-.005.492-.095-.005-.171-1.105-.168s-1.503.081-.895.173m57.2,0c.609.092,1.509.09,2-.005.492-.095-.005-.171-1.105-.168s-1.503.081-.895.173m-48.8.4c.609.092,1.509.09,2-.005.492-.095-.005-.171-1.105-.168s-1.503.081-.895.173m40.4,0c.609.092,1.509.09,2-.005.492-.095-.005-.171-1.105-.168s-1.503.081-.895.173m-36,.4c.609.092,1.509.09,2-.005.492-.095-.005-.171-1.105-.168s-1.503.081-.895.173m31.595,0c.605.091,1.595.091,2.2,0c.605-.092.11-.167-1.1-.167s-1.705.075-1.1.167m-23.8.375l.9.194v33.692c0,26.404-.108,33.807-.5,34.222-.404.428-.384.495.1.347.527-.161.6-4.328.6-34.35v-34.167l-1-.066c-.881-.057-.893-.042-.1.128M207.797,190.6l.003,33.6l1.503.042l1.504.042-1.401-.166-1.401-.166-.106-33.476L207.793,157l.004,33.6m-61.948-1.48c-.108.176.144.533.562.794.628.392.72.372.531-.12-.199-.519,1.813-.594,16.015-.594c10.562,0,16.243.14,16.243.4c0,.22-.21.4-.467.4-.256,0-.351.116-.209.257.357.358,1.517-.667,1.248-1.102-.273-.442-33.65-.476-33.923-.035M229.8,192.4c.44.189,1.16.338,1.6.332.643-.009.604-.075-.2-.332-1.368-.438-2.419-.438-1.4,0m-96.744.884c-.135.504-.229,1.276-.21,1.716s.199.098.4-.76c.39-1.662.224-2.5-.19-.956M170.6,193.2c-.504.217-.578.344-.2.344.33,0,.96-.155,1.4-.344.504-.217.578-.344.2-.344-.33,0-.96.155-1.4.344m63.9-.124c.385.1,1.015.1,1.4,0c.385-.101.07-.183-.7-.183s-1.085.082-.7.183m5.005.007c.497.096,1.217.092,1.6-.008.382-.1-.025-.179-.905-.174-.88.004-1.193.086-.695.182m-81.905.915c.988.318,4.689.537,4.367.258-.092-.079-1.337-.242-2.767-.362-1.56-.131-2.2-.089-1.6.104M165,194l-2.4.266l2.2.039c1.21.021,2.56-.116,3-.305.892-.383.664-.383-2.8,0m98.353,2.5c-1.377,2.336-1.467,2.535-.766,1.7.813-.968,1.513-2.2,1.251-2.2-.105,0-.323.225-.485.5m-130.86,2.3c0,.77.082,1.085.183.7.1-.385.1-1.015,0-1.4-.101-.385-.183-.07-.183.7m134.808,1c.004.88.086,1.193.182.695.096-.497.092-1.217-.008-1.6-.1-.382-.179.025-.174.905m-135.207,5.6c0,2.86.122,5.74.271,6.4.148.66.207-1.41.13-4.6-.181-7.481-.402-8.474-.401-1.8m135.65-.2c0,2.09.068,2.945.15,1.9s.082-2.755,0-3.8-.15-.19-.15,1.9M140,202.11c0,.061,1.395,1.456,3.1,3.1l3.1,2.99-2.99-3.1c-2.777-2.879-3.21-3.283-3.21-2.99m117.2,2.49c-.972.99-1.677,1.8-1.567,1.8s.995-.81,1.967-1.8s1.677-1.8,1.567-1.8-.995.81-1.967,1.8m-6.415,5.429l-1.385,1.229l1.5-1.077c1.326-.951,1.757-1.381,1.385-1.381-.063,0-.738.553-1.5,1.229m15.844,5c-.148.586-.191,1.143-.097,1.237.095.094.292-.308.439-.895.148-.586.191-1.143.097-1.237-.095-.094-.292.308-.439.895M139.466,216.8c.476.192,1.056.675,1.288,1.074.232.4.427.529.434.288.017-.608-1.331-1.767-2.019-1.737-.313.014-.179.183.297.375m-2.437,3.029c-.148.586-.191,1.143-.097,1.237.095.094.292-.308.439-.895.148-.586.191-1.143.097-1.237-.095-.094-.292.308-.439.895m119.749.471l-1.378,1.5l1.5-1.378c1.396-1.284,1.684-1.622,1.378-1.622-.066,0-.741.675-1.5,1.5m5.904.7c.127,1.1.295,2.075.374,2.167.299.347.072-2.603-.259-3.367-.223-.515-.264-.087-.115,1.2m-90.082.2c.44.189,1.07.344,1.4.344.378,0,.304-.127-.2-.344-.44-.189-1.07-.344-1.4-.344-.378,0-.304.127.2.344m46.8,1.6c-.504.217-.578.344-.2.344.33,0,.96-.155,1.4-.344.504-.217.578-.344.2-.344-.33,0-.96.155-1.4.344m-35.8.8c.55.176,1.36.32,1.8.32.633,0,.592-.066-.2-.32-.55-.176-1.36-.32-1.8-.32-.633,0-.592.066.2.32m-35.856.709c.316.512,2.656,2.244,2.656,1.966c0-.099-.661-.684-1.468-1.3-.808-.616-1.343-.916-1.188-.666m41.156-.033c.385.1,1.015.1,1.4,0c.385-.101.07-.183-.7-.183s-1.085.082-.7.183m17.778,24.737c-.618.543-.964.987-.77.987s.775-.45,1.292-1c1.195-1.272.931-1.266-.522.013m-6.4,6.8c-.618.543-.964.987-.77.987s.775-.45,1.292-1c1.195-1.272.931-1.266-.522.013m-71.34,18.093c-.254.162.674.294,2.062.294s2.316-.132,2.062-.294-1.182-.294-2.062-.294-1.808.132-2.062.294m-25.877.394c-.103.165,1.551.252,3.676.194c6.845-.188,7.6-.348,1.987-.422-3.012-.04-5.561.063-5.663.228m42.639-.003c1.485.077,3.915.077,5.4,0s.27-.14-2.7-.14-4.185.063-2.7.14m16.967-.03c-.366.366-.338,3.642.033,3.872.165.102.237-.704.16-1.792l-.139-1.978l8.602.116c4.731.063,8.518-.02,8.416-.185-.23-.371-16.703-.403-17.072-.033m26.803.018c-.108.173,1.407.257,3.367.187c3.396-.123,4.808.444,3.153,1.265-.226.112-.18.157.1.1s.51-.449.51-.87c0-.806-6.657-1.442-7.13-.682m12.93.015c0,.165,1.62.3,3.6.3s3.6-.135,3.6-.3-1.62-.3-3.6-.3-3.6.135-3.6.3m9.862,0c-.102.165,1.417.3,3.376.3s3.562-.135,3.562-.3-1.519-.3-3.376-.3-3.46.135-3.562.3m12.757.4c-.214.561-.167.601.237.2.315-.312,1.647-.5,3.544-.5s3.229.188,3.544.5c.404.401.451.361.237-.2-.226-.593-.802-.7-3.781-.7s-3.555.107-3.781.7m9.539-.135c-.278.725.116,1.446.766,1.403.343-.022.337-.087-.024-.233-1.727-.697-.341-1.335,2.9-1.335c3.226,0,4.519.578,2.99,1.337-.225.112-.18.157.1.1.281-.057.51-.449.51-.87c0-1.034-6.854-1.414-7.242-.402m12.104-.265c-.102.165,1.22.3,2.938.3s3.04-.135,2.938-.3-1.424-.3-2.938-.3-2.836.135-2.938.3m9.096.265c-.278.725.116,1.446.766,1.403.343-.022.337-.087-.024-.233-1.727-.697-.341-1.335,2.9-1.335c3.226,0,4.519.578,2.99,1.337-.225.112-.18.157.1.1.281-.057.51-.449.51-.87c0-1.034-6.854-1.414-7.242-.402M268.8,274.3c0,.165,1.62.3,3.6.3s3.6-.135,3.6-.3-1.62-.3-3.6-.3-3.6.135-3.6.3m9.862,0c-.102.165,1.417.3,3.376.3s3.562-.135,3.562-.3-1.519-.3-3.376-.3-3.46.135-3.562.3m14.737-.01c2.833.136,3.963.766,2.591,1.447-.226.112-.18.157.1.1s.51-.449.51-.87c0-.688-.321-.77-3.101-.794l-3.102-.027l3.002.144M136,275.325c0,.069.585.654,1.3,1.3l1.3,1.175-1.175-1.3c-1.095-1.212-1.425-1.484-1.425-1.175m-31.109,8.953l-.091,8.478-1.1.528c-1.193.571-1.463,1.55-.5,1.813.493.135.502.095.049-.222-.623-.435-.276-1.275.526-1.275c1.295,0,1.442-1.049,1.325-9.451l-.117-8.349-.092,8.478m2.88-7.746c-.112.292-.15,2.137-.084,4.1l.12,3.568.196-4.101c.195-4.067.161-4.592-.232-3.567m25.629-.067c.44.242,1.348.912,2.018,1.488.678.583.552.382-.285-.453-.826-.825-1.734-1.495-2.018-1.488-.283.007-.155.211.285.453m11.715,7.941c.11,7.958.081,8.341-.664,8.578-1.237.392-1.877,1.351-1.29,1.933.381.378.431.337.23-.19-.184-.484.09-.852.977-1.31l1.232-.638v-8.166c0-4.491-.135-8.249-.3-8.352-.165-.102-.248,3.563-.185,8.145m24.445-7.854c.317.382.424,2.921.349,8.295l-.109,7.743-1.1.527c-1.085.52-1.444,1.423-.737,1.86.199.123.279-.093.178-.481-.131-.501.167-.837,1.037-1.165l1.222-.462v-7.802c0-7.788-.126-9.067-.892-9.067-.25,0-.23.212.052.552m21.731,7.726l-.091,8.478-1.1.528c-1.193.571-1.463,1.55-.5,1.813.493.135.502.095.049-.222-.623-.435-.276-1.275.526-1.275c1.295,0,1.442-1.049,1.325-9.451l-.117-8.349-.092,8.478m25.515-1.378c.003,3.795.138,7.108.3,7.363.162.254.294-2.851.294-6.9s-.135-7.363-.3-7.363-.297,3.105-.294,6.9m22.637-6.267c-1.085,2.826-.036,7.002,1.737,6.92.948-.044.935-.066-.18-.307l-1.2-.259v-3.494c0-3.79,0-3.791-.357-2.86m10.183.689l-.975,1.278l1.275-1.175c1.325-1.222,1.477-1.44.974-1.403-.165.012-.738.597-1.274,1.3M194.082,279.6c-.038,1.87.077,3.631.256,3.913.505.796,10.124.507,10.394-.313.165-.499.094-.514-.424-.086-.446.367-1.913.481-5.165.4L194.6,283.4l-.224-3.6-.225-3.6-.069,3.4m33.283,3.6c0,3.85.06,5.425.133,3.5s.073-5.075,0-7-.133-.35-.133,3.5m2.798-.4c0,3.63.06,5.115.135,3.3.074-1.815.074-4.785,0-6.6-.075-1.815-.135-.33-.135,3.3m30.4,0c0,3.63.06,5.115.135,3.3.074-1.815.074-4.785,0-6.6-.075-1.815-.135-.33-.135,3.3m-23.596,2c0,4.29.059,6.045.131,3.9s.072-5.655,0-7.8-.131-.39-.131,3.9M156.4,279.946c0,.63-.378,1.665-.839,2.3l-.839,1.154l1.039-1.122c.896-.968,1.502-3.478.839-3.478-.11,0-.2.516-.2,1.146m2.4,1.157c0,.239-.489,1.034-1.086,1.766-.893,1.095-.922,1.19-.163.535c1.078-.929,1.814-2.173,1.481-2.505-.127-.128-.232-.036-.232.204M124.531,284.6c.002,1.54.074,2.121.161,1.291s.085-2.09-.003-2.8c-.089-.71-.16-.031-.158,1.509m15.562-1.4c0,.77.082,1.085.183.7.1-.385.1-1.015,0-1.4-.101-.385-.183-.07-.183.7m143.448.101c.202.202.792.3,1.313.218.801-.126.744-.182-.367-.367-.794-.131-1.168-.073-.946.149M121.701,284.6c.004.88.086,1.193.182.695.096-.497.092-1.217-.008-1.6-.1-.382-.179.025-.174.905m16,0c.004.88.086,1.193.182.695.096-.497.092-1.217-.008-1.6-.1-.382-.179.025-.174.905m-20.065-.043c-.255.306-1.002.781-1.662,1.054s-1.121.576-1.024.672c.257.258,2.423-.927,3.028-1.657.286-.344.43-.626.32-.626s-.408.251-.662.557m126.764-.313c0,.233.585,1.048,1.3,1.813.715.764,1.013,1.019.662.566-.35-.453-.935-1.268-1.3-1.812-.364-.544-.662-.799-.662-.567m-135.1.447c.825.087,2.175.087,3,0c.825-.086.15-.157-1.5-.157s-2.325.071-1.5.157M140.093,286c0,.77.082,1.085.183.7.1-.385.1-1.015,0-1.4-.101-.385-.183-.07-.183.7m54.076.135c-.719,1.876.044,6.863,1.131,7.383c1.142.546,1.396,1.069.69,1.419-.226.112-.18.157.1.1.903-.183.544-1.21-.617-1.767l-1.128-.54.128-3.566c.127-3.568.081-4.03-.304-3.029m45.298-.268c-1.322,1.321.097,7.733,1.711,7.733.318,0,.435.306.306.801-.115.44-.046.699.153.576.706-.436.349-1.34-.737-1.862-1.076-.517-1.1-.606-1.1-4.022c0-1.922-.015-3.494-.033-3.494-.019.001-.154.121-.3.268m47.157.515c.967,1.407,2.575,3.256,2.564,2.949-.007-.182-.682-1.059-1.5-1.949-.818-.889-1.297-1.339-1.064-1m-178.856.558c-.692,1.802.04,6.056,1.132,6.578c1.142.546,1.396,1.069.69,1.419-.225.112-.18.157.1.1.903-.183.543-1.21-.619-1.767-1.117-.536-1.128-.577-1-3.707.13-3.181.079-3.619-.303-2.623m50.876.86c.329,1.471.558,1.79.55.767-.003-.422-.189-1.037-.412-1.367-.297-.438-.334-.276-.138.6m-2.368,1.646c.264,2.709.456,3.087.486.954.014-.99-.132-2.049-.325-2.354-.216-.341-.278.196-.161,1.4m-30.19,1.325c.315.534,1.009,1.231,1.543,1.549l.971.578-.888-.749c-.489-.412-1.183-1.109-1.544-1.549-.625-.763-.629-.755-.082.171m134.714-.107c0,.218.495.833,1.1,1.366l1.1.97-1-1.2c-.55-.66-1.045-1.275-1.1-1.367-.055-.091-.1.012-.1.231m-136.809,1.324c.466.653,1.051,1.314,1.3,1.468.25.155-.05-.38-.666-1.188-1.337-1.753-1.841-1.976-.634-.28m122.909-.557c.863,1.025.871,1.318.061,2.212-.663.732-.468,1.562.363,1.551.289-.004.24-.164-.124-.408-.525-.351-.512-.469.1-.938.948-.726.88-1.572-.2-2.486-.899-.761-.899-.761-.2.069m-18.875,1.538L226.65,294.6l1.555-1.487c.855-.817,1.474-1.551,1.375-1.63-.099-.08-.799.589-1.555,1.486m30.375-1.514c0,.213.675,1.008,1.5,1.767l1.5,1.378-1.4-1.596c-.77-.877-1.445-1.672-1.5-1.766s-.1.003-.1.217M136.975,292.9l-1.175,1.3l1.3-1.175c1.212-1.095,1.484-1.425,1.175-1.425-.069,0-.654.585-1.3,1.3m154.168-.617c.277.496.2.832-.28,1.222-.577.469-.545.482.242.1.819-.397.708-2.005-.139-2.005-.113,0-.034.307.177.683m-39.999.533c.52.431,1.195.784,1.5.784.692,0,.736,1.061.056,1.335-.299.121-.218.215.2.233c1.417.064.759-1.456-1-2.311-1.613-.784-1.652-.786-.756-.041m-47.451.164c-1.295.715-1.502,1-.546.75.455-.119,1.035-.467,1.289-.773.539-.65.471-.648-.743.023m3.88-.013c.408.492,2.027,1.151,2.027.825c0-.073-.558-.412-1.24-.752-.938-.468-1.13-.485-.787-.073m72.12.013c-1.46.806-1.532,1.062-.163.585.698-.244,1.27-.606,1.27-.804c0-.199-.045-.343-.1-.322-.055.022-.508.265-1.007.541m-149.83.352c.747.215,1.697.215,2.34,0c.89-.296.666-.361-1.258-.361-2.054,0-2.186.045-1.082.361M148,292.934c0,.103.581.39,1.291.638.71.247,1.115.285.9.084-.456-.427-2.191-.998-2.191-.722m26.137.525c.491.143.671.469.538.977-.11.42-.024.764.19.764.777,0,.141-1.791-.665-1.873-.691-.07-.7-.052-.063.132m47.368.024c.497.096,1.217.092,1.6-.008.382-.1-.025-.179-.905-.174-.88.004-1.193.086-.695.182m13.162-.016c-.556.556-.257,1.733.433,1.701.418-.018.499-.112.2-.233-.738-.298-.607-1.248.2-1.459.561-.147.574-.192.067-.23-.349-.025-.754.074-.9.221m30.438.016c.497.096,1.217.092,1.6-.008.382-.1-.025-.179-.905-.174-.88.004-1.193.086-.695.182m31.519.309c.672.513.695.647.176.994-.364.244-.413.404-.124.408.262.003.593-.182.735-.412.295-.478-.497-1.582-1.136-1.582-.236,0-.079.267.349.592m-138.848.786c.428.342,1.058.608,1.4.59.539-.027.542-.061.024-.254-.33-.122-.96-.388-1.4-.59-.787-.362-.788-.358-.024.254" fill="#747474" fill-rule="evenodd"/><path d="M199.1,97.482c.495.096,1.305.096,1.8,0c.495-.095.09-.173-.9-.173s-1.395.078-.9.173M194.6,98c-1.019.438.032.438,1.4,0c.804-.257.843-.323.2-.332-.44-.006-1.16.143-1.6.332m9.4,0c1.368.438,2.419.438,1.4,0-.44-.189-1.16-.338-1.6-.332-.643.009-.604.075.2.332m-13.1,1.386c-1.155.537-2.1,1.066-2.1,1.173c0,.175,4.351-1.668,4.767-2.018.515-.435-.842-.005-2.667.845m-6.956,5.714c-1.151,1.389-1.638,2.1-1.44,2.1.11,0,.682-.63,1.269-1.4c1.09-1.429,1.222-1.968.171-.7m32.231.632c.616.807,1.201,1.468,1.3,1.468.278,0-1.454-2.34-1.966-2.656-.25-.155.05.38.666,1.188m-20.36,3.091c-1.692.843-3.638,2.525-4.268,3.685-.211.389.423-.099,1.408-1.084c2.466-2.466,4.171-3.118,7.717-2.948c1.58.075,2.66.002,2.4-.164-.983-.625-5.636-.298-7.257.511m9.658,1.131c.877.635,1.978,1.67,2.448,2.3.469.63.859.938.866.683.015-.546-3.883-4.137-4.49-4.137-.229,0,.3.519,1.176,1.154m13.145-.154c.148.44.438,1.385.644,2.1.207.715.461,1.3.564,1.3.309,0-.292-2.122-.907-3.2-.353-.619-.468-.696-.301-.2m-38.389,2.029c-.148.586-.191,1.143-.097,1.237.095.094.292-.308.439-.895.148-.586.191-1.143.097-1.237-.095-.094-.292.308-.439.895m-.481,5.771c0,2.31.066,3.255.147,2.1s.081-3.045,0-4.2-.147-.21-.147,2.1m40.407.4c0,3.579.047,3.889.319,2.1.176-1.155.176-3.045,0-4.2-.272-1.789-.319-1.479-.319,2.1m-30.041-.2c.003,1.1.081,1.503.173.895.092-.609.09-1.509-.005-2-.095-.492-.171.005-.168,1.105m19.606.2c0,1.21.075,1.705.167,1.1.091-.605.091-1.595,0-2.2-.092-.605-.167-.11-.167,1.1m-19.311,2.822c-.058,4.109,9.148,9.101,12.663,6.866.26-.166-.829-.235-2.42-.155-4.588.232-7.619-1.597-9.505-5.733-.401-.88-.733-1.32-.738-.978M180.056,122.8c0,.33.155.96.344,1.4.217.504.344.578.344.2c0-.33-.155-.96-.344-1.4-.217-.504-.344-.578-.344-.2m27.328,1.626c-.145.235-.993.955-1.884,1.6-.891.646-1.436,1.174-1.211,1.174.46,0,4.065-3.158,3.635-3.184-.152-.009-.395.176-.54.41M182.277,128.5c.911,1.637,5.593,6.411,6.923,7.058.83.403.796.33-.2-.432-2.52-1.929-4.602-4.059-5.82-5.957-1.424-2.219-2.003-2.649-.903-.669m32.553,3.204c-2.059,2.32-2.192,2.538-.667,1.096c1.678-1.588,3.715-4.007,3.364-3.996-.07.002-1.283,1.307-2.697,2.9m-6.395,4.853c-.306.369-.424,2.093-.349,5.1l.114,4.543l2.2.038l2.2.038-2.1-.159-2.1-.159v-4.559c0-3.92.098-4.616.7-4.967.385-.224.497-.413.249-.42s-.659.239-.914.545M191.6,145.533c0,.287-.808.495-2.1.539l-2.1.072l1.956.152c1.839.143,3.127-.346,2.517-.956-.15-.15-.273-.063-.273.193m47.4.518c.66.251,1.47.647,1.8.881.533.377.533.352,0-.228-.33-.358-1.14-.754-1.8-.88l-1.2-.229l1.2.456m-72.6,1.093c1.096.919,3.963,1.087,7.8.458c1.365-.224.654-.261-2.237-.115-3.575.18-4.419.105-5.4-.484l-1.163-.698l1,.839M180,146.8l-2.6.262l2.2.034c1.21.019,3.1-.106,4.2-.278c2.625-.408.193-.42-3.8-.018m36.2.003c2.051.335,6.466.514,6.167.25-.092-.082-1.967-.245-4.167-.363-2.771-.148-3.385-.114-2,.113m10,.824c2.67.405,6.509.446,6.733.073.099-.165-1.826-.317-4.277-.338-3.404-.029-3.984.033-2.456.265m-69.394,4.606c.003.422.189,1.037.412,1.367.297.438.334.276.138-.6-.329-1.471-.558-1.79-.55-.767m85.713,1.178c-.231.654-.884,1.684-1.451,2.289-.566.605-.858,1.1-.649,1.1.21,0,.381.36.381.8s.201.8.447.8c.273,0,.361-.426.227-1.1-.155-.779.077-1.532.794-2.579.557-.814.936-1.709.842-1.99-.093-.28-.359.026-.591.68m-84.043,2.146c.659.968.78,1.408.424,1.534-.275.096-.5.6-.5,1.119c0,.518-.18,1.054-.4,1.19s-.4.687-.4,1.224-.18.976-.4.976-.4.54-.4,1.2-.18,1.2-.4,1.2-.4.439-.4.976-.18,1.088-.4,1.224-.4.687-.4,1.224-.18.976-.4.976-.4.439-.4.976-.18,1.088-.4,1.224-.4.687-.4,1.224-.18.976-.4.976-.4.54-.4,1.2-.18,1.2-.4,1.2-.4.439-.4.976-.18,1.088-.4,1.224-.4.687-.4,1.224-.18.976-.4.976-.4.439-.4.976-.18,1.088-.4,1.224-.4.687-.4,1.224-.18.976-.4.976-.4.54-.4,1.2-.18,1.2-.4,1.2-.4.437-.4.971c0,.588-.276,1.042-.7,1.153-.385.101-.07.19.7.198s1.201-.067.958-.168c-.489-.202-.266-2.04.29-2.384.193-.119.352-.657.352-1.194s.18-.976.4-.976.4-.54.4-1.2.18-1.2.4-1.2.4-.439.4-.976.18-1.088.4-1.224.4-.687.4-1.224.18-.976.4-.976.4-.439.4-.976.18-1.088.4-1.224.4-.687.4-1.224.18-.976.4-.976.4-.54.4-1.2.18-1.2.4-1.2.4-.362.4-.805.208-1.208.462-1.7c.994-1.921,1.138-2.311,1.138-3.066c0-.43.18-.893.4-1.029s.4-.687.4-1.224.18-.976.4-.976.4-.439.4-.976.18-1.088.4-1.224.4-.697.4-1.248c0-.911.133-.989,1.5-.876l1.5.124v15.7c0,13.689.077,15.7.6,15.7.525,0,.586-1.952.491-15.609-.107-15.314-.094-15.616.694-15.907.517-.191-.063-.317-1.631-.353-2.224-.051-2.535-.171-3.618-1.393l-1.184-1.338.924,1.357m7.924.243c-.912.673-1.134,1-.678,1c.452,0,.678.325.678.976c0,.537.18,1.088.4,1.224s.4.687.4,1.224.18.976.4.976.4-.45.4-1-.18-1-.4-1-.4-.439-.4-.976-.18-1.088-.4-1.224c-.681-.421-.446-.95.7-1.571.605-.328.91-.604.678-.613-.233-.009-1.033.434-1.778.984m65.7-.568c.738.43.984,2.368.3,2.368-.22,0-.4.439-.4.976s-.18,1.088-.4,1.224-.4.599-.4,1.029-.18,1.139-.4,1.576-.58,1.153-.8,1.59-.4,1.157-.4,1.6-.18.805-.4.805-.4.54-.4,1.2-.18,1.2-.4,1.2-.4.439-.4.976-.18,1.088-.4,1.224-.4.687-.4,1.224-.18.976-.4.976-.4.439-.4.976-.18,1.088-.4,1.224-.4.687-.4,1.224-.18.976-.4.976-.4.54-.4,1.2-.18,1.2-.4,1.2-.4.439-.4.976-.18,1.088-.4,1.224-.4.687-.4,1.224-.18.976-.4.976-.4.422-.4.938c0,1.155-1.157,2.262-2.365,2.262-1.114,0-.927.733.387,1.51.915.54.928.536.207-.062-1.291-1.072-.854-1.101,16.55-1.123c17.975-.022,18.092-.012,15.871,1.298-1.713,1.011-1.945,1.453-.321.614c2.348-1.214,2.156-2.637-.355-2.637-.206,0-.374-.36-.374-.8s-.18-.8-.4-.8-.4-.54-.4-1.2-.18-1.2-.4-1.2-.4-.362-.4-.805-.18-1.163-.4-1.6-.58-1.153-.8-1.59-.4-1.157-.4-1.6-.18-.805-.4-.805-.4.349-.4.776.18.888.4,1.024.4.687.4,1.224.18.976.4.976.4.54.4,1.2.18,1.2.4,1.2.4.362.4.805.208,1.14.463,1.547c1.16,1.858.432,2.076-6.554,1.958l-6.509-.11v-14.982-14.982l1-.25c.598-.15.071-.243-1.311-.231-1.511.013-2.028.124-1.495.321.804.297.814.525.711,15.213L236.6,187.4l-6.6.099c-6.072.092-8.96-.289-7.3-.963.275-.111.5-.627.5-1.146c0-.518.18-1.054.4-1.19s.4-.687.4-1.224.18-.976.4-.976.4-.439.4-.976.18-1.088.4-1.224.4-.687.4-1.224.18-.976.4-.976.4-.54.4-1.2.18-1.2.4-1.2.4-.362.4-.805.18-1.163.4-1.6.58-1.153.8-1.59.4-1.157.4-1.6.18-.805.4-.805.4-.54.4-1.2.18-1.2.4-1.2.4-.362.4-.805.18-1.163.4-1.6.58-1.153.8-1.59.4-1.146.4-1.576.18-.893.4-1.029.4-.687.4-1.224.18-.976.4-.976.4-.289.4-.643c0-.416.218-.559.621-.404.356.136.516.069.376-.158-.134-.217-.482-.395-.772-.395s-.751-.27-1.025-.6-.701-.595-.949-.588-.136.196.249.42m-61.267.115c.092.081,2.417.241,5.167.356c3.272.137,4.171.101,2.6-.103-2.509-.327-8.055-.507-7.767-.253m50.367.268c-1.21.156.05.193,2.8.082s5.075-.269,5.167-.35c.269-.238-5.573-.042-7.967.268m-34.308.765c2.14.181,4.21.449,4.6.598.531.202.594.155.253-.19-.264-.266-2.197-.517-4.6-.597L183,156.053l3.892.327m22.708-.027l-1.4.247-.102,33.7-.103,33.7l2.503-.047c1.376-.026,3.042-.182,3.702-.347.66-.164-.375-.206-2.3-.093l-3.5.206v-33.428-33.427l2.5-.236c1.375-.13,3.31-.293,4.3-.362s.45-.134-1.2-.143c-1.65-.01-3.63.094-4.4.23m32,3.423c0,.563.18,1.024.4,1.024s.4.439.4.976.18,1.088.4,1.224.4.687.4,1.224.18.976.4.976.4-.45.4-1-.18-1-.4-1-.4-.439-.4-.976-.18-1.088-.4-1.224-.4-.586-.4-1-.18-.864-.4-1c-.227-.14-.4.196-.4.776m-73.6,2.6c0,.427.18.888.4,1.024s.4.687.4,1.224.18.976.4.976.4-.349.4-.776-.18-.888-.4-1.024-.4-.687-.4-1.224-.18-.976-.4-.976-.4.349-.4.776m76,4c0,.427.18.888.4,1.024s.4.687.4,1.224.18.976.4.976.4-.349.4-.776-.18-.888-.4-1.024-.4-.687-.4-1.224-.18-.976-.4-.976-.4.349-.4.776M169.6,167c0,.55.18,1,.4,1s.4.439.4.976.18,1.088.4,1.224.4.687.4,1.224.18.976.4.976.4-.45.4-1-.18-1-.4-1-.4-.439-.4-.976-.18-1.088-.4-1.224-.4-.687-.4-1.224-.18-.976-.4-.976-.4.45-.4,1m76,4c0,.55.18,1,.4,1s.4.439.4.976.18,1.088.4,1.224.4.687.4,1.224.18.976.4.976.4-.45.4-1-.18-1-.4-1-.4-.439-.4-.976-.18-1.088-.4-1.224-.4-.687-.4-1.224-.18-.976-.4-.976-.4.45-.4,1M172,173.576c0,.427.18.888.4,1.024s.4.687.4,1.224.18.976.4.976.4.54.4,1.2.18,1.2.4,1.2.4.439.4.976.18,1.088.4,1.224.4.687.4,1.224.18.976.4.976.4.439.4.976.18,1.088.4,1.224.4.687.4,1.224.18.976.4.976.4-.45.4-1-.18-1-.4-1-.4-.439-.4-.976-.18-1.088-.4-1.224-.4-.687-.4-1.224-.18-.976-.4-.976-.4-.54-.4-1.2-.18-1.2-.4-1.2-.4-.439-.4-.976-.18-1.088-.4-1.224-.4-.687-.4-1.224-.18-.976-.4-.976-.4-.45-.4-1-.18-1-.4-1-.4.349-.4.776m5,14.851c-.651.258-.559.322.5.345c1.352.029,1.658-.152.8-.474-.275-.103-.86-.045-1.3.129m2.4,1.329c-.44.479-2.06,1.38-3.6,2.001-4.41,1.78-4.556,1.852-3.2,1.589c1.695-.329,7.951-3.445,8.123-4.046.215-.747-.419-.529-1.323.456m-46.205,1.857c-.277.667-.41,1.305-.297,1.418.113.114.321-.252.462-.812.14-.561.432-1.019.648-1.019.215,0,.392-.18.392-.4c0-.838-.724-.349-1.205.813M249,191.229c-.88.423-1.15.657-.6.52c1.133-.282,3.212-1.324,2.6-1.303-.22.007-1.12.36-2,.783m15.987,1.071c-.398,1.045-1.16,2.687-1.695,3.648-.534.962-.793,1.638-.575,1.503.456-.281,2.883-5.187,2.883-5.826c0-.945.754-.343,1.006.804.149.675.361,1.137.472,1.026.284-.284-.672-3.055-1.055-3.055-.173,0-.639.855-1.036,1.9M228,192.4c1.368.438,2.419.438,1.4,0-.44-.189-1.16-.338-1.6-.332-.643.009-.604.075.2.332m17.4,0c-.504.217-.578.344-.2.344.33,0,.96-.155,1.4-.344.504-.217.578-.344.2-.344-.33,0-.96.155-1.4.344m-13.2.823c.88.182,2.14.319,2.8.304.9-.02.75-.107-.6-.347-2.414-.43-4.306-.393-2.2.043m9-.023c-1.357.286-1.363.295-.2.307.66.008,1.65-.131,2.2-.307c1.312-.42-.004-.42-2,0m-85.6.8c.55.176,1.36.32,1.8.32.633,0,.592-.066-.2-.32-.55-.176-1.36-.32-1.8-.32-.633,0-.592.066.2.32m12.8,0c-.792.254-.833.32-.2.32.44,0,1.25-.144,1.8-.32.792-.254.833-.32.2-.32-.44,0-1.25.144-1.8.32m-36.16,2.64c-.15,1.463-.191,2.742-.092,2.842.1.099.309-1.011.465-2.469.156-1.457.198-2.736.092-2.841-.106-.106-.315,1.005-.465,2.468m28.66-1.946c1.045.082,2.755.082,3.8,0s.19-.15-1.9-.15-2.945.068-1.9.15M267.28,195.8c-.012.66.123,2.01.3,3c.236,1.328.325,1.485.34.6.012-.66-.123-2.01-.3-3-.236-1.328-.325-1.485-.34-.6m-6.253,3.6c-.587.77-.924,1.398-.747,1.395.176-.003.727-.633,1.224-1.4c1.164-1.798.896-1.795-.477.005m-121.879.838c1.291,1.954,4.293,5.159,6.566,7.009c1.376,1.12.916.55-1.351-1.675-1.891-1.854-4.022-4.092-4.735-4.972-.751-.926-.953-1.079-.48-.362m-7.397,5.362c0,2.53.065,3.565.145,2.3.079-1.265.079-3.335,0-4.6-.08-1.265-.145-.23-.145,2.3m125.71-1.996c-1.259,1.323-3.453,3.319-4.875,4.437s-2.586,2.128-2.586,2.244c0,.558,7.332-5.718,8.767-7.504c1.811-2.253,1.341-1.957-1.306.823m10.653,1.796c.003,1.1.081,1.503.173.895.092-.609.09-1.509-.005-2-.095-.492-.171.005-.168,1.105M149,209.799c.66.574,1.74,1.327,2.4,1.673c1.645.863,1.206.469-1.4-1.258-1.41-.934-1.769-1.083-1-.415M267.4,212.4c-.155,1.128-.198,2.136-.094,2.239.103.103.31-.739.461-1.872.15-1.133.192-2.141.094-2.239-.098-.099-.306.744-.461,1.872m-135.307-.2c.001.66.139,1.74.307,2.4.423,1.663.442.026.023-2-.278-1.345-.331-1.409-.33-.4m113.403.75c-1.921,1.181-2.458,1.739-.896.931c1.254-.648,2.945-1.855,2.6-1.856-.11,0-.877.416-1.704.925M156.8,214.596c0,.274,2.449,1.488,2.632,1.305.087-.087-.47-.457-1.237-.823s-1.395-.583-1.395-.482m83,1.382c-.88.417-1.487.772-1.349.79.389.05,3.149-1.154,3.149-1.373c0-.268-.001-.268-1.8.583m26.8.822c-.152.691-.193,1.341-.091,1.442.102.102.3-.389.441-1.092s.181-1.352.091-1.442c-.091-.091-.289.401-.441,1.092m-133.732-.4c.02,1.039.65,2.746.664,1.8.006-.44-.143-1.16-.332-1.6-.211-.49-.339-.568-.332-.2M257.4,219.755c-1.54,1.592-3.61,3.572-4.6,4.4-.99.827-.656.64.742-.417c1.399-1.058,3.504-2.961,4.679-4.23c2.522-2.724,2.704-2.766,3.516-.808.342.825.631,1.266.642.98.133-3.341-1.701-3.313-4.979.075m-117-1.933c0,.407,4.586,4.98,6.4,6.382.55.425-.396-.543-2.102-2.151s-3.371-3.308-3.7-3.777c-.329-.47-.598-.674-.598-.454m-3.432,4.578c-.149,1.32-.439,2.4-.643,2.4-.205,0-.255.19-.112.421.592.958,1.037.007,1.184-2.528.194-3.341-.064-3.517-.429-.293m33.832-2.018c.33.223.945.409,1.367.412c1.023.008.704-.221-.767-.55-.876-.196-1.038-.159-.6.138m3.2.8c.33.223.945.409,1.367.412c1.023.008.704-.221-.767-.55-.876-.196-1.038-.159-.6.138m50.4.018c-.804.257-.843.323-.2.332.44.006,1.16-.143,1.6-.332c1.019-.438-.032-.438-1.4,0m38.07,1.9c-.039,1.375.065,2.497.23,2.494.825-.017,1.63-1.105,2.49-3.367.665-1.749.093-1.13-.78.844-.96,2.169-1.488,1.962-1.715-.671-.132-1.536-.165-1.434-.225.7M177.4,222c.44.189,1.16.338,1.6.332.643-.009.604-.075-.2-.332-1.368-.438-2.419-.438-1.4,0m43.8,0c-.804.257-.843.323-.2.332.44.006,1.16-.143,1.6-.332c1.019-.438-.032-.438-1.4,0m-40.379.821c.534.339,3.521.56,3.146.234-.092-.08-.968-.247-1.946-.373-1.151-.147-1.575-.098-1.2.139M217.2,222.8c-1.367.288-1.372.295-.2.319.66.014,1.56-.13,2-.319.962-.413.164-.413-1.8,0m-31.4.785c1.222.326,4.47.535,4.167.268-.092-.081-1.337-.246-2.767-.368-1.638-.139-2.156-.103-1.4.1m-37.695,1.462c.126.204,1.086.985,2.132,1.737c1.047.751,1.772,1.155,1.613.896-.16-.258-1.119-1.04-2.132-1.737-1.013-.696-1.738-1.1-1.613-.896m97.495,3.789c-.664.543-.731.679-.2.404c1.305-.674,2.028-1.228,1.6-1.225-.22.002-.85.371-1.4.821m-91.6.143c0,.11.54.48,1.2.821s1.2.531,1.2.421-.54-.48-1.2-.821-1.2-.531-1.2-.421m86.4,2.621c-2.09,1.078-3.661,1.969-3.492,1.98.425.028,7.492-3.541,7.492-3.784c0-.272.207-.365-4,1.804m-14.4,6c-.77.422-1.22.766-1,.766s1.03-.344,1.8-.766s1.22-.766,1-.766-1.03.344-1.8.766m-50.767.952c.408.372,4.367,2.241,4.367,2.061c0-.225-3.82-2.213-4.253-2.213-.154,0-.205.068-.114.152m46.667.874c-1.045.544-1.9,1.079-1.9,1.188c0,.179,3.96-1.691,4.367-2.062.495-.451-.806.01-2.467.874m-41.5,1.796c1.033.704,3.6,2.003,3.6,1.82c0-.209-3.595-2.245-3.95-2.236-.138.003.02.19.35.416m37.281.55c-1.96,1.386-2.096,1.693-.281.633c1.878-1.095,2.525-1.614,1.98-1.585-.209.01-.973.439-1.699.952m-5.347,3.424c-3.547,2.413-4.334,3.018-4.334,3.332c0,.132,1.181-.654,2.624-1.746c1.443-1.093,3.153-2.26,3.8-2.594c1.038-.537,1.499-.988,1.01-.988-.092,0-1.487.898-3.1,1.996m-24.877.269c.472.404,1.851,1.515,3.066,2.467c2.348,1.842,6.614,6.173,8.3,8.427l1.016,1.359l1.317-1.759c1.122-1.499,1.144-1.567.151-.459-1.446,1.613-1.687,1.613-2.803-.003-1.917-2.776-7.214-7.751-10.504-9.866-.837-.539-1.055-.605-.543-.166m17.331,6.035l-2.588,2.7l2.7-2.588c1.485-1.424,2.7-2.639,2.7-2.7c0-.295-.407.08-2.812,2.588M102.401,273.9c0,.165,2.965.3,6.588.3s6.277-.122,5.899-.272c-.947-.374-12.488-.4-12.487-.028m31.999.369c.77.333,1.757.903,2.193,1.268.758.634.767.629.2-.099-.558-.717-2.794-1.877-3.48-1.805-.172.018.317.304,1.087.636m8.267-.402c-.726.726-.218,2.072.933,2.473l1.2.418v7.799v7.799l-1.095.525c-2.952,1.415-1.409,2.729,3.095,2.637l3.4-.069-3.596-.225c-3.971-.247-4.975-1.019-2.727-2.096L145,292.59l.114-7.395c.129-8.411.04-9.089-1.215-9.267-.59-.084-.899-.403-.899-.928c0-.766.267-.8,6.289-.8c3.458,0,5.978-.122,5.6-.272-.898-.354-11.874-.409-12.222-.061m19.733.025c-.001.17,3.969.256,8.82.193l8.821-.115-.121,2.315c-.116,2.232-.16,2.314-1.215,2.3-.625-.009-.946.134-.747.333c1.233,1.233,2.242.1,2.242-2.518v-2.6l-8.9-.108c-4.895-.059-8.9.031-8.9.2m26.4.008c0,.165,1.8.3,4,.3s4-.135,4-.3-1.8-.3-4-.3-4,.135-4,.3m13.354.277c-.122.317-.137.902-.034,1.3.122.473.203.343.234-.377l.046-1.1h3.6h3.6l.006,1.1c.005.821.099.953.372.522.224-.354.216-.86-.02-1.3-.516-.964-7.441-1.093-7.804-.145m9.6,0c-.122.317-.137.902-.034,1.3.121.467.204.328.234-.392L212,273.97l3.7.115c3.564.111,3.699.149,3.667,1.028-.021.565.109.771.34.54.205-.205.252-.751.106-1.213-.341-1.074-7.656-1.314-8.059-.263M224.8,273.9c0,.165,1.8.3,4,.3s4-.135,4-.3-1.8-.3-4-.3-4,.135-4,.3m13.196.069c4.075.248,5.39,1.124,3.033,2.02-1.456.553-1.284.858.193.343c1.002-.349,1.2-.616,1.1-1.479L242.2,273.8l-4-.031-4-.032l3.796.232m8.164.191c-.125.326-.143.919-.04,1.317.122.473.203.343.234-.377l.046-1.1h3.173c3.076,0,3.179.031,3.349,1.005.161.92.171.912.127-.1-.059-1.329-6.402-2.014-6.889-.745m9.307-.293c-.147.146-.264.461-.261.7.003.238.157.195.342-.097.25-.393,1.28-.496,3.995-.4c2.012.072,3.658-.005,3.658-.17-.001-.371-7.365-.403-7.734-.033m13.092.295c-.124.325-.142.917-.039,1.315.122.473.203.343.234-.377l.046-1.1h3.573h3.574l.184,1.1c.176,1.045.182,1.04.127-.1l-.058-1.2-3.707-.115c-2.978-.093-3.751.001-3.934.477m9.6,0c-.124.325-.142.917-.039,1.315.122.473.203.343.234-.377l.046-1.1h3.6c3.654,0,3.82.073,3.614,1.6-.066.488.017.505.444.089.389-.379.412-.688.091-1.2-.603-.958-7.637-1.246-7.99-.327m11.708-.295c-.508.507-.264,2.048.361,2.288.512.197.355.575-.848,2.043-.812.991-1.386,1.802-1.276,1.802.931,0,3.125-3.69,2.476-4.165-1.521-1.112-.431-1.793,3.101-1.937l3.319-.135-3.433-.082c-1.889-.044-3.554.039-3.7.186M116.909,275.2c.56.44,1.148.8,1.308.8s-.167-.36-.726-.8c-.56-.44-1.148-.8-1.308-.8s.167.36.726.8m8.314.242c-1.542,1.297-3.073,3.913-3.371,5.758-.202,1.256-.167,1.223.342-.322.775-2.35,2.016-4.27,3.534-5.467.7-.551,1.151-1.004,1.003-1.007-.148-.002-.827.465-1.508,1.038m36.886.958c0,.99.078,1.395.173.9.096-.495.096-1.305,0-1.8-.095-.495-.173-.09-.173.9m33.491-.442c-.972.27-1,.38-1,3.86v3.582l4,.117c6.082.178,5.853.331,5.715-3.824-.099-2.994-.215-3.493-.823-3.548-.526-.047-.548-.014-.084.128.511.157.602.781.508,3.459L203.8,283l-4.5.113-4.5.113v-3.413c0-3.112.069-3.413.776-3.413.427,0,.888-.18,1.024-.4s.192-.382.124-.36-.574.165-1.124.318m66.4,0l-1,.277-.109,6.81c-.118,7.361.402,9.354,2.523,9.665.656.096.628.023-.17-.442-1.8-1.048-2.015-2.016-2.03-9.168-.013-6.37.024-6.7.762-6.7.427,0,.888-.18,1.024-.4s.192-.382.124-.36-.574.165-1.124.318m-132.662.348c-.254.162.494.294,1.662.294s1.916-.132,1.662-.294-1.002-.294-1.662-.294-1.408.132-1.662.294m78.529-.039c-.147.146-.267,3.923-.267,8.392v8.126l.971.243c.997.251,1.606,1.162,1.207,1.808-.592.957-7.378.412-7.378-.593c0-.686.282-1.027,1-1.207.968-.243,1-.359,1-3.644v-3.392h-5-5l.081,3.5.082,3.5.135-3.3.134-3.3h4.584h4.584v3.01c0,2.863-.05,3.029-1.027,3.4-.813.309-1,.619-.9,1.49l.127,1.1l3.639.114c4.47.14,6.339-1.506,3.106-2.735L208,292.42v-7.981c0-7.264.063-7.997.7-8.163.561-.147.574-.192.067-.23-.349-.025-.754.074-.9.221m5.233.145c.881.355.902.512.99,7.475l.09,7.113.12-6.947c.122-7.13-.049-8.082-1.449-8.028-.441.018-.36.143.249.387m4.277.104c-.109.284-.143,3.389-.077,6.9l.122,6.384.089-6.671c.08-5.972.162-6.689.789-6.853.656-.172.655-.186-.013-.23-.391-.025-.801.186-.91.47m8.723-.264c.631.186.7.876.7,7.004c0,7.22-.161,7.971-1.91,8.92-.6.326-.851.599-.559.608s1.061-.514,1.709-1.163l1.179-1.178-.11-7.116c-.104-6.782-.147-7.121-.909-7.199-.622-.064-.644-.036-.1.124m4.476.267c-.11.286-.144,3.031-.076,6.1l.125,5.581.087-5.871c.078-5.211.167-5.891.788-6.053.656-.172.655-.186-.013-.23-.391-.025-.802.188-.911.473m4.916-.258c.882.19.893.284,1.012,8.266l.12,8.073-.012-8.2-.012-8.2-1-.066c-.866-.056-.88-.039-.108.127m11.308.042c0,.239-.466.989-1.036,1.666-.569.677-.884,1.23-.7,1.228.498-.004,2.294-2.772,1.994-3.073-.142-.141-.258-.061-.258.179m3.57.797l-.97,1.1l1-.849c.55-.467,1.27-.948,1.6-1.069.514-.187.509-.223-.03-.25-.347-.018-1.067.463-1.6,1.068m19.321-.849c.612.181.704.971.814,6.977l.124,6.773-.014-6.896c-.014-6.595-.05-6.898-.815-6.977-.604-.062-.631-.032-.109.123m4.523.249c-.088.275-.226,3.65-.305,7.5s-.012,6.28.15,5.4.305-4.152.318-7.271c.02-5.053.099-5.69.723-5.853.656-.172.655-.186-.013-.23-.391-.025-.784.179-.873.454m4.986-.208c1.098.418,1.188,1.061,1.194,8.569l.006,7.461-1.228.428c-1.028.358-1.207.608-1.1,1.539l.128,1.111l3.639.114c4.532.142,6.423-1.474,3.171-2.71-1.503-.572-1.587-6.804-.091-6.804.954,0,5.763,5.622,5.607,6.555-.041.245-.19.895-.33,1.445-.199.779-.105.712.424-.299.453-.866.551-1.467.296-1.8-6.044-7.897-7.045-8.259-7.231-2.612-.113,3.416-.095,3.493.871,3.736c1.01.253,1.623,1.162,1.222,1.811-.511.827-7.378.43-7.378-.426c0-.473.481-1.038,1.2-1.41l1.2-.621v-7.416c0-7.562-.242-8.99-1.514-8.931-.554.025-.571.075-.086.26m4.667-.025c-.147.146-.267,1.766-.267,3.6v3.333h1.1c.803,0,1.407-.406,2.235-1.5l1.135-1.5-1.229,1.3c-2.169,2.293-2.841,1.851-2.841-1.871c0-2.683.108-3.198.7-3.353.561-.147.574-.192.067-.23-.349-.025-.754.074-.9.221M295,276.31c-.22.163-.848.835-1.396,1.493L292.608,279l1.396-1.251c.768-.688,1.666-1.349,1.996-1.468.533-.194.533-.221,0-.243-.33-.014-.78.108-1,.272M108.086,280.3l.114,3.9l2.6.027l2.6.028-2.5-.146-2.5-.146v-3.564-3.564l2.9-.138l2.9-.138-3.114-.08-3.115-.079.115,3.9m40.181-3.633c-.369.369-.338,6.533.033,6.534.165,0,.242-1.431.17-3.182l-.13-3.183l2.93-.138l2.93-.139-2.833-.08c-1.559-.043-2.954.041-3.1.188m16.837.833c-.411.84-.797,1.082-1.631,1.023-.6-.042-.987.093-.859.3.561.907,2.254.382,2.715-.841.43-1.139.577-1.21,2.266-1.1L169.4,277v7.862c0,4.324.135,7.779.3,7.677.356-.221.409-14.589.057-15.506-.464-1.209-4.005-.854-4.653.467m7.787,7.2l.091,8.3.118-8.1.117-8.1h1.962c1.533,0,2.002.153,2.145.7.138.527.195.477.23-.2.043-.838-.118-.9-2.354-.9h-2.4l.091,8.3m-58.021-7.485c.867.506,1.658,2.915,1.34,4.079-.221.807-.199.826.207.177.746-1.195-.549-4.688-1.726-4.659-.274.007-.194.186.179.403m11.695.996c-.592.776-.961,1.526-.821,1.667.141.14.256.059.256-.181c0-.239.554-.989,1.231-1.666s1.046-1.231.82-1.231-.895.635-1.486,1.411m7.068-1.311c.092.055.707.55,1.367,1.1l1.2,1-.97-1.1c-.533-.605-1.148-1.1-1.366-1.1-.219,0-.322.045-.231.1M119.4,280.2c0,1.414.122,2.262.272,1.885.149-.377.272-1.225.272-1.885s-.123-1.508-.272-1.885c-.15-.377-.272.471-.272,1.885m39.914-.4c.003,1.1.081,1.503.173.895.092-.609.09-1.509-.005-2-.095-.492-.171.005-.168,1.105m88.441.481c-.848,1.035-1.333,1.753-1.078,1.595.544-.336,3.078-3.476,2.805-3.476-.102,0-.879.847-1.727,1.881m43.132.735c-1.697,2.307-1.404,2.298.492-.016.811-.99,1.328-1.793,1.148-1.784-.18.008-.918.818-1.64,1.8m-47.718.162c-.746.929-1.7,1.645-2.318,1.74l-1.051.162l1.052.06c.798.046,1.407-.374,2.527-1.74.811-.99,1.381-1.8,1.267-1.8-.115,0-.779.71-1.477,1.578M140.087,280.6c.004.44.145,1.34.313,2c.274,1.078.306,1.098.313.2.004-.55-.137-1.45-.313-2-.251-.784-.319-.827-.313-.2m-15.044.433c-.342.891-.292,6.671.063,7.229.162.254.294-1.411.294-3.7c0-4.493.003-4.467-.357-3.529M137,284.6c0,2.074.122,3.462.272,3.085.149-.377.272-1.765.272-3.085s-.123-2.708-.272-3.085c-.15-.377-.272,1.011-.272,3.085m18.6-3.047c0,.267-.585.74-1.3,1.051-.715.31-1.005.572-.644.58.85.021,2.635-1.424,2.244-1.816-.165-.166-.3-.083-.3.185m89.862,1.578c-.364.403-.662.88-.662,1.061c0,.483,2.543,3.781,2.927,3.796.18.006-.315-.772-1.1-1.729-1.631-1.991-1.666-2.132-.765-3.128.364-.402.572-.731.462-.731s-.498.329-.862.731m-126.989.9c-.272.437-1.076,1.148-1.784,1.58-.709.432-1.061.787-.783.788.623.001,3.574-2.653,3.278-2.949-.118-.117-.438.144-.711.581m38.717-.219c-.421.507-.345.797.445,1.7c1.606,1.834,1.702,1.924,1.364,1.288-.175-.33-.678-1-1.117-1.488-.66-.733-.711-.996-.292-1.5.279-.337.418-.612.308-.612s-.429.275-.708.612m131.61.776c0,.138,1.17,1.701,2.6,3.472s2.595,3.067,2.588,2.88c-.014-.394-5.188-6.73-5.188-6.352M140.24,287.24c-.147.917-.188,1.745-.093,1.84.095.096.299-.57.453-1.48s.196-1.738.093-1.84c-.103-.103-.306.563-.453,1.48m8.027-1.373c-.368.368-.338,6.442.033,6.673.165.102.242-1.327.171-3.177l-.13-3.363h2.449c2.656,0,4.638.761,4.933,1.895.176.673.186.673.231-.001.104-1.593-6.404-3.31-7.687-2.027m92.839.022c1.46.267,6.248,6.443,5.602,7.226-.418.506-.406.581.067.425c1.129-.373.823-1.089-1.873-4.392-2.021-2.475-2.99-3.358-3.718-3.387-.892-.035-.899-.023-.078.128m-130.206.808l-2.9.138.079,3.083.08,3.082.138-2.9.138-2.9l2.483-.04c1.365-.022,2.932-.184,3.482-.36.742-.237.793-.31.2-.281-.44.022-2.105.102-3.7.178M121.849,288c.306,1.73,1.003,3.125,2.384,4.766.957,1.138,3.367,2.751,3.367,2.255c0-.11-.531-.475-1.179-.81-1.578-.816-3.185-2.993-4.083-5.531-.537-1.519-.669-1.702-.489-.68m37.427,2.028c-.066,1.943.055,2.342.951,3.12c1.294,1.126,1.088,1.784-.659,2.099l-1.368.248l1.251.052c2.141.09,2.742-2.127.781-2.879-.401-.154-.637-.972-.736-2.548l-.145-2.32-.075,2.228m89.92-.034c.694.877,1.471,1.724,1.727,1.882.255.158-.23-.56-1.078-1.595-.848-1.034-1.625-1.881-1.727-1.881s.383.718,1.078,1.594m-93.19.639c.003,1.082.175,2.234.381,2.559.243.385.292-.246.138-1.8-.295-2.994-.527-3.333-.519-.759m-30.404-1.2c.001.202.466.907,1.033,1.567l1.031,1.2-.903-1.4c-1.159-1.796-1.163-1.801-1.161-1.367m132.004.4c.003.422.189,1.037.412,1.367.297.438.334.276.138-.6-.329-1.471-.558-1.79-.55-.767m-40,.597c-.007.772,1.631,2.372,2.42,2.364.316-.003.128-.232-.418-.508s-1.218-.948-1.494-1.494c-.308-.609-.504-.748-.508-.362m11.842,1.17c-.458,1.039-1.276,1.931-2.374,2.589-.921.552-1.476,1.005-1.233,1.007c1.437.013,5.242-4.247,4.477-5.012-.094-.093-.485.544-.87,1.416m-94.299-.539c-.302.364-1.089.897-1.749,1.185-.724.315-.925.529-.506.538.622.014,3.659-2.344,3.055-2.372-.138-.007-.498.286-.8.649M270,290.739c0,.26-.585.829-1.3,1.265-.721.44-1.02.794-.67.795.757.001,2.62-1.883,2.238-2.264-.147-.148-.268-.056-.268.204m-132.619,2.113c-1.211,1.266-1.33,1.493-.509.972.896-.568,2.634-2.624,2.218-2.624-.07,0-.839.743-1.709,1.652m121.483-.052c.346.55,1.237,1.326,1.982,1.725c1.307.699,1.319.699.355,0-.55-.399-1.442-1.175-1.982-1.725l-.982-1l.627,1m-156.28.427c-.424.686-.045.753.793.14.649-.474.669-.567.123-.567-.359,0-.771.192-.916.427m47.116.005c.385.224.7.789.7,1.255c0,.465.112.735.248.598.492-.492-.262-2.285-.956-2.273-.651.012-.651.036.008.42m18-.167c-.275.111-.479.682-.454,1.268.036.822.09.883.234.267.103-.44.477-1.025.83-1.3.642-.499.336-.617-.61-.235m6.6.147c.495.199.9.668.9,1.042s.106.573.237.443c.53-.531-.319-1.896-1.164-1.872l-.873.026.9.361m14.684.015c-.424.686-.045.753.793.14.649-.474.669-.567.123-.567-.359,0-.771.192-.916.427m26.638.199c.286.345,1.073.894,1.749,1.22c1.126.543,1.162.54.429-.034-.44-.345-1.117-.894-1.505-1.22-.926-.779-1.331-.758-.673.034m5.883-.343c.497.096,1.217.092,1.6-.008.382-.1-.025-.179-.905-.174-.88.004-1.193.086-.695.182m12.685.547c-.144.457-.157.937-.027,1.067.131.13.237-.069.237-.443s.405-.843.9-1.042l.9-.361-.873-.026c-.546-.016-.972.286-1.137.805m7.076-.366c.367.295.759.896.872,1.336.12.466.176.301.134-.397-.051-.851-.303-1.236-.872-1.336-.73-.127-.742-.092-.134.397m11.634-.032c.385.224.7.699.7,1.055c0,.355.106.54.237.41.448-.449-.292-1.897-.964-1.885-.614.011-.612.048.027.42m12.205-.149c.497.096,1.217.092,1.6-.008.382-.1-.025-.179-.905-.174-.88.004-1.193.086-.695.182m5.715.948c-.98.643-1.606,1.169-1.393,1.169.437,0,3.373-1.928,3.373-2.214c0-.257.014-.264-1.98,1.045m25.803-.664c.838.613,1.217.546.793-.14-.145-.235-.557-.427-.916-.427-.546,0-.526.093.123.567m-49.867,1.951c.176.175,1.743.263,3.482.197l3.162-.122-3.482-.196c-1.915-.109-3.338-.054-3.162.121m-141.844.177c1.052.082,2.672.081,3.6-.003s.068-.151-1.912-.15-2.74.07-1.688.153m24.461.188c.866.184,2.306.186,3.2.003c1.394-.285,1.168-.333-1.573-.335-2.701-.002-2.954.05-1.627.332m40.339-.188c1.052.082,2.672.081,3.6-.003s.068-.151-1.912-.15-2.74.07-1.688.153m21.6,0c1.052.082,2.672.081,3.6-.003s.068-.151-1.912-.15-2.74.07-1.688.153m29.18.23c1.076.204,2.518.21,3.345.015c1.194-.283.857-.347-1.891-.359-3.093-.014-3.203.012-1.454.344m16.02-.23c1.052.082,2.672.081,3.6-.003s.068-.151-1.912-.15-2.74.07-1.688.153m27.578.227c.804.191,2.199.183,3.173-.016c1.569-.321,1.43-.354-1.436-.339-2.62.013-2.922.075-1.737.355m28.221-.229c.94.085,2.38.084,3.2-.002.819-.086.049-.155-1.711-.154-1.76.002-2.43.072-1.489.156" fill="#9e9e9e" fill-rule="evenodd"/><path d="M220.093,118c0,.77.082,1.085.183.7.1-.385.1-1.015,0-1.4-.101-.385-.183-.07-.183.7M109.5,276.289c.715.089,1.885.089,2.6,0c.715-.088.13-.161-1.3-.161s-2.015.073-1.3.161m38.762.011c-.102.165.652.247,1.676.183c3.174-.199,3.571-.372.986-.429-1.362-.029-2.56.081-2.662.246m17.19.016c-.108.174.466.254,1.276.177c2.474-.234,2.765-.398.796-.447-1.032-.025-1.965.096-2.072.27m8.648-.029c.605.091,1.595.091,2.2,0c.605-.092.11-.167-1.1-.167s-1.705.075-1.1.167m30.437,3.513c.002,1.76.072,2.43.156,1.489.085-.94.084-2.38-.002-3.2-.086-.819-.155-.049-.154,1.711m2.831,4.8c0,4.4.058,6.255.13,4.121.072-2.133.072-5.733.001-8-.072-2.266-.131-.521-.131,3.879m32.369-4.8c.002,1.76.072,2.43.156,1.489.085-.94.084-2.38-.002-3.2-.086-.819-.155-.049-.154,1.711m31.225,3.2c0,3.52.062,4.906.136,3.081s.074-4.705-.001-6.4-.136-.201-.135,3.319m2.798-.4c.001,3.3.062,4.597.138,2.882.075-1.715.074-4.415-.001-6-.076-1.585-.138-.182-.137,3.118m-15.999.6c0,3.41.061,4.805.136,3.1s.075-4.495,0-6.2-.136-.31-.136,3.1m25.573-3.2c0,1.65.071,2.325.157,1.5.087-.825.087-2.175,0-3-.086-.825-.157-.15-.157,1.5m-133.629,3.487c.609.092,1.509.09,2-.005.492-.095-.005-.171-1.105-.168s-1.503.081-.895.173m47.411,2.41c1.383.078,3.543.077,4.8-.002c1.256-.079.124-.143-2.516-.142-2.64,0-3.668.065-2.284.144M239.74,289.2c0,1.87.069,2.635.153,1.7s.084-2.465,0-3.4-.153-.17-.153,1.7m-130.249-2.511c.71.088,1.97.09,2.8.003s.249-.159-1.291-.161-2.219.069-1.509.158m95.046,2.711c.002,1.76.072,2.43.156,1.489.085-.94.084-2.38-.002-3.2-.086-.819-.155-.049-.154,1.711m78.8,0c.002,1.76.072,2.43.156,1.489.085-.94.084-2.38-.002-3.2-.086-.819-.155-.049-.154,1.711m-61.832,6.083c.497.096,1.217.092,1.6-.008.382-.1-.025-.179-.905-.174-.88.004-1.193.086-.695.182m43.395-.007c.385.1,1.015.1,1.4,0c.385-.101.07-.183-.7-.183s-1.085.082-.7.183" fill="#7c7c7c" fill-rule="evenodd"/></g></svg>
